<svg class="main-svg" xmlns="http://www.w3.org/2000/svg" xmlns:xlink="http://www.w3.org/1999/xlink" width="700" height="500" style="" viewBox="0 0 700 500"><rect x="0" y="0" width="700" height="500" style="fill: rgb(248, 249, 250); fill-opacity: 1;"/><defs id="defs-090992"><g class="clips"/><g class="gradients"/><g class="patterns"/></defs><g class="bglayer"/><g class="layer-below"><g class="imagelayer"/><g class="shapelayer"/></g><g class="cartesianlayer"/><g class="polarlayer"/><g class="smithlayer"/><g class="ternarylayer"/><g class="geolayer"/><g class="funnelarealayer"/><g class="pielayer"/><g class="iciclelayer"/><g class="treemaplayer"/><g class="sunburstlayer"/><g class="glimages"/><g class="sankey" transform="translate(80,100)matrix(1 0 0 1 0 0)" style="box-sizing: content-box; position: absolute; left: 0px; shape-rendering: geometricprecision; pointer-events: none;"><g class="sankey-links" style="fill: none;"><path class="sankey-link" d="M20,0.4662809286007761C270,0.4662809286007761 270,89.60525495160653 520,89.60525495160653L520,118.73649549088532C270,118.73649549088532 270,29.597521467879574 20,29.597521467879574Z" style="stroke: rgb(68, 68, 68); stroke-opacity: 1; fill: rgb(233, 69, 96); fill-opacity: 0.3; stroke-width: 0; opacity: 1;"/><path class="sankey-link" d="M20,109.4713942371928C270,109.4713942371928 270,121.67602704076955 520,121.67602704076955L520,132.78226534012683C270,132.78226534012683 270,120.57763253655007 20,120.57763253655007Z" style="stroke: rgb(68, 68, 68); stroke-opacity: 1; fill: rgb(233, 69, 96); fill-opacity: 0.3; stroke-width: 0; opacity: 1;"/><path class="sankey-link" d="M20,184.03023448703703C270,184.03023448703703 270,143.52634369493984 520,143.52634369493984L520,153.1945052145026C270,153.1945052145026 270,193.6983960065998 20,193.6983960065998Z" style="stroke: rgb(68, 68, 68); stroke-opacity: 1; fill: rgb(233, 69, 96); fill-opacity: 0.3; stroke-width: 0; opacity: 1;"/><path class="sankey-link" d="M20,296.003718007764C270,296.003718007764 270,166.14625023126666 520,166.14625023126666L520,173.8844010463623C270,173.8844010463623 270,303.74186882285966 20,303.74186882285966Z" style="stroke: rgb(68, 68, 68); stroke-opacity: 1; fill: rgb(233, 69, 96); fill-opacity: 0.3; stroke-width: 0; opacity: 1;"/><path class="sankey-link" d="M20,165.05590372581474C270,165.05590372581474 270,137.82685156767457 520,137.82685156767457L520,143.52634369493984C270,143.52634369493984 270,170.75539585308002 20,170.75539585308002Z" style="stroke: rgb(68, 68, 68); stroke-opacity: 1; fill: rgb(233, 69, 96); fill-opacity: 0.3; stroke-width: 0; opacity: 1;"/><path class="sankey-link" d="M20,30.471232334092594C270,30.471232334092594 270,200.92903023848675 520,200.92903023848675L520,205.64012751709998C270,205.64012751709998 270,35.18232961270582 20,35.18232961270582Z" style="stroke: rgb(68, 68, 68); stroke-opacity: 1; fill: rgb(233, 69, 96); fill-opacity: 0.3; stroke-width: 0; opacity: 1;"/><path class="sankey-link" d="M20,252.59683665444282C270,252.59683665444282 270,159.96236917817345 520,159.96236917817345L520,164.48635048543883C270,164.48635048543883 270,257.1208179617082 20,257.1208179617082Z" style="stroke: rgb(68, 68, 68); stroke-opacity: 1; fill: rgb(233, 69, 96); fill-opacity: 0.3; stroke-width: 0; opacity: 1;"/><path class="sankey-link" d="M20,223.42904478742759C270,223.42904478742759 270,155.56363485172963 520,155.56363485172963L520,158.84872734869984C270,158.84872734869984 270,226.7141372843978 20,226.7141372843978Z" style="stroke: rgb(68, 68, 68); stroke-opacity: 1; fill: rgb(233, 69, 96); fill-opacity: 0.3; stroke-width: 0; opacity: 1;"/><path class="sankey-link" d="M20,304.17947875585065C270,304.17947875585065 270,216.13371191026988 520,216.13371191026988L520,218.86801949157905C270,218.86801949157905 270,306.9137863371598 20,306.9137863371598Z" style="stroke: rgb(68, 68, 68); stroke-opacity: 1; fill: rgb(233, 69, 96); fill-opacity: 0.3; stroke-width: 0; opacity: 1;"/><path class="sankey-link" d="M20,194.25219892179874C270,194.25219892179874 270,210.29690080403157 520,210.29690080403157L520,212.92256040197742C270,212.92256040197742 270,196.8778585197446 20,196.8778585197446Z" style="stroke: rgb(68, 68, 68); stroke-opacity: 1; fill: rgb(233, 69, 96); fill-opacity: 0.3; stroke-width: 0; opacity: 1;"/><path class="sankey-link" d="M20,150.11211134741632C270,150.11211134741632 270,135.21779096718697 520,135.21779096718697L520,137.8268515676746C270,137.8268515676746 270,152.72117194790394 20,152.72117194790394Z" style="stroke: rgb(68, 68, 68); stroke-opacity: 1; fill: rgb(233, 69, 96); fill-opacity: 0.3; stroke-width: 0; opacity: 1;"/><path class="sankey-link" d="M20,120.97751747531767C270,120.97751747531767 270,205.64012751709998 520,205.64012751709998L520,208.21297212313317C270,208.21297212313317 270,123.55036208135083 20,123.55036208135083Z" style="stroke: rgb(68, 68, 68); stroke-opacity: 1; fill: rgb(233, 69, 96); fill-opacity: 0.3; stroke-width: 0; opacity: 1;"/><path class="sankey-link" d="M20,135.4022139332027C270,135.4022139332027 270,132.78226534012683 520,132.78226534012683L520,135.21779096718697C270,135.21779096718697 270,137.83773956026283 20,137.83773956026283Z" style="stroke: rgb(68, 68, 68); stroke-opacity: 1; fill: rgb(233, 69, 96); fill-opacity: 0.3; stroke-width: 0; opacity: 1;"/><path class="sankey-link" d="M20,208.72971037159647C270,208.72971037159647 270,153.1945052145026 520,153.1945052145026L520,155.56363485172966C270,155.56363485172966 270,211.09884000882352 20,211.09884000882352Z" style="stroke: rgb(68, 68, 68); stroke-opacity: 1; fill: rgb(233, 69, 96); fill-opacity: 0.3; stroke-width: 0; opacity: 1;"/><path class="sankey-link" d="M20,257.1208179617082C270,257.1208179617082 270,214.46626716559734 520,214.46626716559734L520,215.72326397311969C270,215.72326397311969 270,258.37781476923055 20,258.37781476923055Z" style="stroke: rgb(68, 68, 68); stroke-opacity: 1; fill: rgb(233, 69, 96); fill-opacity: 0.3; stroke-width: 0; opacity: 1;"/><path class="sankey-link" d="M20,170.99985381564738C270,170.99985381564738 270,209.1183719844938 520,209.1183719844938L520,210.2969008040316C270,210.2969008040316 270,172.1783826351852 20,172.1783826351852Z" style="stroke: rgb(68, 68, 68); stroke-opacity: 1; fill: rgb(233, 69, 96); fill-opacity: 0.3; stroke-width: 0; opacity: 1;"/><path class="sankey-link" d="M20,239.3883940103189C270,239.3883940103189 270,158.84872734869984 520,158.84872734869984L520,159.96236917817342C270,159.96236917817342 270,240.50203583979248 20,240.50203583979248Z" style="stroke: rgb(68, 68, 68); stroke-opacity: 1; fill: rgb(233, 69, 96); fill-opacity: 0.3; stroke-width: 0; opacity: 1;"/><path class="sankey-link" d="M20,283.027661328056C270,283.027661328056 270,165.24990436851962 520,165.24990436851962L520,166.14625023126663C270,166.14625023126663 270,283.924007190803 20,283.924007190803Z" style="stroke: rgb(233, 69, 96); stroke-opacity: 0.3; fill: rgb(233, 69, 96); fill-opacity: 0.3; stroke-width: 1; opacity: 1;"/><path class="sankey-link" d="M20,47.03418146455769C270,47.03418146455769 270,118.73649549088532 520,118.73649549088532L520,119.61624235617407C270,119.61624235617407 270,47.913928329846456 20,47.913928329846456Z" style="stroke: rgb(233, 69, 96); stroke-opacity: 0.3; fill: rgb(233, 69, 96); fill-opacity: 0.3; stroke-width: 1; opacity: 1;"/><path class="sankey-link" d="M20,29.597521467879574C270,29.597521467879574 270,186.56771177089695 520,186.56771177089695L520,187.44142263710995C270,187.44142263710995 270,30.471232334092598 20,30.471232334092598Z" style="stroke: rgb(233, 69, 96); stroke-opacity: 0.3; fill: rgb(233, 69, 96); fill-opacity: 0.3; stroke-width: 1; opacity: 1;"/><path class="sankey-link" d="M20,318.7656381890116C270,318.7656381890116 270,173.8844010463623 520,173.8844010463623L520,174.71585991904516C270,174.71585991904516 270,319.5970970616945 20,319.5970970616945Z" style="stroke: rgb(233, 69, 96); stroke-opacity: 0.3; fill: rgb(233, 69, 96); fill-opacity: 0.3; stroke-width: 1; opacity: 1;"/><path class="sankey-link" d="M20,59.76578018169832C270,59.76578018169832 270,119.61624235617408 520,119.61624235617408L520,120.44317422955014C270,120.44317422955014 270,60.59271205507437 20,60.59271205507437Z" style="stroke: rgb(233, 69, 96); stroke-opacity: 0.3; fill: rgb(233, 69, 96); fill-opacity: 0.3; stroke-width: 1; opacity: 1;"/><path class="sankey-link" d="M20,226.7141372843978C270,226.7141372843978 270,213.40091332872964 520,213.40091332872964L520,214.2233182027989C270,214.2233182027989 270,227.53654215846706 20,227.53654215846706Z" style="stroke: rgb(233, 69, 96); stroke-opacity: 0.3; fill: rgb(233, 69, 96); fill-opacity: 0.3; stroke-width: 1; opacity: 1;"/><path class="sankey-link" d="M20,270.2296666210823C270,270.2296666210823 270,164.4863504854388 520,164.4863504854388L520,165.24990436851962C270,165.24990436851962 270,270.9932205041631 20,270.9932205041631Z" style="stroke: rgb(233, 69, 96); stroke-opacity: 0.3; fill: rgb(233, 69, 96); fill-opacity: 0.3; stroke-width: 1; opacity: 1;"/><path class="sankey-link" d="M20,72.44456390692622C270,72.44456390692622 270,120.44317422955014 520,120.44317422955014L520,121.11015212741914C270,121.11015212741914 270,73.11154180479522 20,73.11154180479522Z" style="stroke: rgb(233, 69, 96); stroke-opacity: 0.3; fill: rgb(233, 69, 96); fill-opacity: 0.3; stroke-width: 1; opacity: 1;"/><path class="sankey-link" d="M20,193.6983960065998C270,193.6983960065998 270,188.08576553844497 520,188.08576553844497L520,188.63956845364388C270,188.63956845364388 270,194.2521989217987 20,194.2521989217987Z" style="stroke: rgb(233, 69, 96); stroke-opacity: 0.3; fill: rgb(233, 69, 96); fill-opacity: 0.3; stroke-width: 1; opacity: 1;"/><path class="sankey-link" d="M20,152.7211719479039C270,152.7211719479039 270,208.63549205843478 520,208.63549205843478L520,209.1183719844938C270,209.1183719844938 270,153.20405187396292 20,153.20405187396292Z" style="stroke: rgb(233, 69, 96); stroke-opacity: 0.3; fill: rgb(233, 69, 96); fill-opacity: 0.3; stroke-width: 1; opacity: 1;"/><path class="sankey-link" d="M20,211.0988400088235C270,211.0988400088235 270,212.92256040197745 520,212.92256040197745L520,213.40091332872967C270,213.40091332872967 270,211.5771929355757 20,211.5771929355757Z" style="stroke: rgb(233, 69, 96); stroke-opacity: 0.3; fill: rgb(233, 69, 96); fill-opacity: 0.3; stroke-width: 1; opacity: 1;"/><path class="sankey-link" d="M20,4.263256414560601e-14C270,4.263256414560601e-14 270,50.6659640554788 520,50.6659640554788L520,51.13224498407954C270,51.13224498407954 270,0.4662809286007755 20,0.4662809286007755Z" style="stroke: rgb(233, 69, 96); stroke-opacity: 0.3; fill: rgb(233, 69, 96); fill-opacity: 0.3; stroke-width: 1; opacity: 1;"/><path class="sankey-link" d="M20,303.74186882285966C270,303.74186882285966 270,188.6395684536439 520,188.6395684536439L520,189.0771783866349C270,189.0771783866349 270,304.17947875585065 20,304.17947875585065Z" style="stroke: rgb(233, 69, 96); stroke-opacity: 0.3; fill: rgb(233, 69, 96); fill-opacity: 0.3; stroke-width: 1; opacity: 1;"/><path class="sankey-link" d="M20,137.83773956026283C270,137.83773956026283 270,208.21297212313314 520,208.21297212313314L520,208.63549205843478C270,208.63549205843478 270,138.26025949556447 20,138.26025949556447Z" style="stroke: rgb(233, 69, 96); stroke-opacity: 0.3; fill: rgb(233, 69, 96); fill-opacity: 0.3; stroke-width: 1; opacity: 1;"/><path class="sankey-link" d="M20,319.59709706169446C270,319.59709706169446 270,218.86801949157902 520,218.86801949157902L520,219.2709224298845C270,219.2709224298845 270,319.99999999999994 20,319.99999999999994Z" style="stroke: rgb(233, 69, 96); stroke-opacity: 0.3; fill: rgb(233, 69, 96); fill-opacity: 0.3; stroke-width: 1; opacity: 1;"/><path class="sankey-link" d="M20,120.57763253655006C270,120.57763253655006 270,187.44142263710998 520,187.44142263710998L520,187.8413075758776C270,187.8413075758776 270,120.97751747531768 20,120.97751747531768Z" style="stroke: rgb(233, 69, 96); stroke-opacity: 0.3; fill: rgb(233, 69, 96); fill-opacity: 0.3; stroke-width: 1; opacity: 1;"/><path class="sankey-link" d="M20,84.96339365664707C270,84.96339365664707 270,121.11015212741914 520,121.11015212741914L520,121.46024007381193C270,121.46024007381193 270,85.31348160303986 20,85.31348160303986Z" style="stroke: rgb(233, 69, 96); stroke-opacity: 0.3; fill: rgb(233, 69, 96); fill-opacity: 0.3; stroke-width: 1; opacity: 1;"/><path class="sankey-link" d="M20,170.75539585308002C270,170.75539585308002 270,187.8413075758776 520,187.8413075758776L520,188.08576553844497C270,188.08576553844497 270,170.99985381564738 20,170.99985381564738Z" style="stroke: rgb(233, 69, 96); stroke-opacity: 0.3; fill: rgb(233, 69, 96); fill-opacity: 0.3; stroke-width: 1; opacity: 1;"/><path class="sankey-link" d="M20,240.5020358397925C270,240.5020358397925 270,214.2233182027989 520,214.2233182027989L520,214.46626716559734C270,214.46626716559734 270,240.74498480259095 20,240.74498480259095Z" style="stroke: rgb(233, 69, 96); stroke-opacity: 0.3; fill: rgb(233, 69, 96); fill-opacity: 0.3; stroke-width: 1; opacity: 1;"/><path class="sankey-link" d="M20,109.23297227370117C270,109.23297227370117 270,51.132244984079534 520,51.132244984079534L520,51.370666947571166C270,51.370666947571166 270,109.47139423719281 20,109.47139423719281Z" style="stroke: rgb(233, 69, 96); stroke-opacity: 0.3; fill: rgb(233, 69, 96); fill-opacity: 0.3; stroke-width: 1; opacity: 1;"/><path class="sankey-link" d="M20,283.924007190803C270,283.924007190803 270,215.90585294516077 520,215.90585294516077L520,216.13371191026985C270,216.13371191026985 270,284.15186615591216 20,284.15186615591216Z" style="stroke: rgb(233, 69, 96); stroke-opacity: 0.3; fill: rgb(233, 69, 96); fill-opacity: 0.3; stroke-width: 1; opacity: 1;"/><path class="sankey-link" d="M20,97.16533345489168C270,97.16533345489168 270,121.46024007381193 520,121.46024007381193L520,121.67602704076954C270,121.67602704076954 270,97.38112042184929 20,97.38112042184929Z" style="stroke: rgb(233, 69, 96); stroke-opacity: 0.3; fill: rgb(233, 69, 96); fill-opacity: 0.3; stroke-width: 1; opacity: 1;"/><path class="sankey-link" d="M20,270.9932205041631C270,270.9932205041631 270,215.7232639731197 520,215.7232639731197L520,215.90585294516077C270,215.90585294516077 270,271.1758094762042 20,271.1758094762042Z" style="stroke: rgb(233, 69, 96); stroke-opacity: 0.3; fill: rgb(233, 69, 96); fill-opacity: 0.3; stroke-width: 1; opacity: 1;"/></g><g class="sankey-node-set" style="cursor: move;"><g class="sankey-node" transform="translate(0.000,0.000)" style="opacity: 1;"><rect class="node-rect" width="20" height="35.1823296127058" style="stroke-width: 0.5; stroke: rgb(26, 26, 46); stroke-opacity: 1; fill: rgb(15, 52, 96); fill-opacity: 1;"/><text class="node-label" data-notex="1" x="0" y="0" text-anchor="start" transform="translate(23.25,21.7911648063529)" style="cursor: default; font-family: Arial, sans-serif; font-size: 12px; fill: rgb(22, 33, 62); fill-opacity: 1; text-shadow: rgb(255, 255, 255) 1px 1px 1px, rgb(255, 255, 255) -1px -1px 1px, rgb(255, 255, 255) 1px -1px 1px, rgb(255, 255, 255) -1px 1px 1px; white-space: pre;">Professional, Scientific, and Technical Services</text></g><g class="sankey-node" transform="translate(0.000,109.233)" style="opacity: 1;"><rect class="node-rect" width="20" height="14.317389807649676" style="stroke-width: 0.5; stroke: rgb(26, 26, 46); stroke-opacity: 1; fill: rgb(15, 52, 96); fill-opacity: 1;"/><text class="node-label" data-notex="1" x="0" y="0" text-anchor="start" transform="translate(23.25,11.358694903824837)" style="cursor: default; font-family: Arial, sans-serif; font-size: 12px; fill: rgb(22, 33, 62); fill-opacity: 1; text-shadow: rgb(255, 255, 255) 1px 1px 1px, rgb(255, 255, 255) -1px -1px 1px, rgb(255, 255, 255) 1px -1px 1px, rgb(255, 255, 255) -1px 1px 1px; white-space: pre;">Unclassified Industry</text></g><g class="sankey-node" transform="translate(0.000,184.030)" style="opacity: 1;"><rect class="node-rect" width="20" height="12.847624032707586" style="stroke-width: 0.5; stroke: rgb(26, 26, 46); stroke-opacity: 1; fill: rgb(15, 52, 96); fill-opacity: 1;"/><text class="node-label" data-notex="1" x="0" y="0" text-anchor="start" transform="translate(23.25,10.623812016353792)" style="cursor: default; font-family: Arial, sans-serif; font-size: 12px; fill: rgb(22, 33, 62); fill-opacity: 1; text-shadow: rgb(255, 255, 255) 1px 1px 1px, rgb(255, 255, 255) -1px -1px 1px, rgb(255, 255, 255) 1px -1px 1px, rgb(255, 255, 255) -1px 1px 1px; white-space: pre;">Administrative and Support and Waste Management and Remediation Services</text></g><g class="sankey-node" transform="translate(0.000,296.004)" style="opacity: 1;"><rect class="node-rect" width="20" height="10.910068329395756" style="stroke-width: 0.5; stroke: rgb(26, 26, 46); stroke-opacity: 1; fill: rgb(15, 52, 96); fill-opacity: 1;"/><text class="node-label" data-notex="1" x="0" y="0" text-anchor="start" transform="translate(23.25,9.655034164697877)" style="cursor: default; font-family: Arial, sans-serif; font-size: 12px; fill: rgb(22, 33, 62); fill-opacity: 1; text-shadow: rgb(255, 255, 255) 1px 1px 1px, rgb(255, 255, 255) -1px -1px 1px, rgb(255, 255, 255) 1px -1px 1px, rgb(255, 255, 255) -1px 1px 1px; white-space: pre;">Finance and Insurance</text></g><g class="sankey-node" transform="translate(0.000,165.056)" style="opacity: 1;"><rect class="node-rect" width="20" height="7.122478909370443" style="stroke-width: 0.5; stroke: rgb(26, 26, 46); stroke-opacity: 1; fill: rgb(15, 52, 96); fill-opacity: 1;"/><text class="node-label" data-notex="1" x="0" y="0" text-anchor="start" transform="translate(23.25,7.761239454685221)" style="cursor: default; font-family: Arial, sans-serif; font-size: 12px; fill: rgb(22, 33, 62); fill-opacity: 1; text-shadow: rgb(255, 255, 255) 1px 1px 1px, rgb(255, 255, 255) -1px -1px 1px, rgb(255, 255, 255) 1px -1px 1px, rgb(255, 255, 255) -1px 1px 1px; white-space: pre;">Manufacturing</text></g><g class="sankey-node" transform="translate(0.000,252.597)" style="opacity: 1;"><rect class="node-rect" width="20" height="5.780978114787615" style="stroke-width: 0.5; stroke: rgb(26, 26, 46); stroke-opacity: 1; fill: rgb(15, 52, 96); fill-opacity: 1;"/><text class="node-label" data-notex="1" x="0" y="0" text-anchor="start" transform="translate(23.25,7.090489057393807)" style="cursor: default; font-family: Arial, sans-serif; font-size: 12px; fill: rgb(22, 33, 62); fill-opacity: 1; text-shadow: rgb(255, 255, 255) 1px 1px 1px, rgb(255, 255, 255) -1px -1px 1px, rgb(255, 255, 255) 1px -1px 1px, rgb(255, 255, 255) -1px 1px 1px; white-space: pre;">Information</text></g><g class="sankey-node" transform="translate(0.000,223.429)" style="opacity: 1;"><rect class="node-rect" width="20" height="4.1074973710394715" style="stroke-width: 0.5; stroke: rgb(26, 26, 46); stroke-opacity: 1; fill: rgb(15, 52, 96); fill-opacity: 1;"/><text class="node-label" data-notex="1" x="0" y="0" text-anchor="start" transform="translate(23.25,6.253748685519735)" style="cursor: default; font-family: Arial, sans-serif; font-size: 12px; fill: rgb(22, 33, 62); fill-opacity: 1; text-shadow: rgb(255, 255, 255) 1px 1px 1px, rgb(255, 255, 255) -1px -1px 1px, rgb(255, 255, 255) 1px -1px 1px, rgb(255, 255, 255) -1px 1px 1px; white-space: pre;">Health Care and Social Assistance</text></g><g class="sankey-node" transform="translate(0.000,150.112)" style="opacity: 1;"><rect class="node-rect" width="20" height="3.09194052654658" style="stroke-width: 0.5; stroke: rgb(26, 26, 46); stroke-opacity: 1; fill: rgb(15, 52, 96); fill-opacity: 1;"/><text class="node-label" data-notex="1" x="0" y="0" text-anchor="start" transform="translate(23.25,5.745970263273289)" style="cursor: default; font-family: Arial, sans-serif; font-size: 12px; fill: rgb(22, 33, 62); fill-opacity: 1; text-shadow: rgb(255, 255, 255) 1px 1px 1px, rgb(255, 255, 255) -1px -1px 1px, rgb(255, 255, 255) 1px -1px 1px, rgb(255, 255, 255) -1px 1px 1px; white-space: pre;">Wholesale Trade</text></g><g class="sankey-node" transform="translate(0.000,135.402)" style="opacity: 1;"><rect class="node-rect" width="20" height="2.858045562361781" style="stroke-width: 0.5; stroke: rgb(26, 26, 46); stroke-opacity: 1; fill: rgb(15, 52, 96); fill-opacity: 1;"/><text class="node-label" data-notex="1" x="0" y="0" text-anchor="start" transform="translate(23.25,5.62902278118089)" style="cursor: default; font-family: Arial, sans-serif; font-size: 12px; fill: rgb(22, 33, 62); fill-opacity: 1; text-shadow: rgb(255, 255, 255) 1px 1px 1px, rgb(255, 255, 255) -1px -1px 1px, rgb(255, 255, 255) 1px -1px 1px, rgb(255, 255, 255) -1px 1px 1px; white-space: pre;">Retail Trade</text></g><g class="sankey-node" transform="translate(0.000,208.730)" style="opacity: 1;"><rect class="node-rect" width="20" height="2.84748256397927" style="stroke-width: 0.5; stroke: rgb(26, 26, 46); stroke-opacity: 1; fill: rgb(15, 52, 96); fill-opacity: 1;"/><text class="node-label" data-notex="1" x="0" y="0" text-anchor="start" transform="translate(23.25,5.623741281989634)" style="cursor: default; font-family: Arial, sans-serif; font-size: 12px; fill: rgb(22, 33, 62); fill-opacity: 1; text-shadow: rgb(255, 255, 255) 1px 1px 1px, rgb(255, 255, 255) -1px -1px 1px, rgb(255, 255, 255) 1px -1px 1px, rgb(255, 255, 255) -1px 1px 1px; white-space: pre;">Educational Services</text></g><g class="sankey-node" transform="translate(0.000,239.388)" style="opacity: 1;"><rect class="node-rect" width="20" height="1.3565907922720726" style="stroke-width: 0.5; stroke: rgb(26, 26, 46); stroke-opacity: 1; fill: rgb(15, 52, 96); fill-opacity: 1;"/><text class="node-label" data-notex="1" x="0" y="0" text-anchor="start" transform="translate(23.25,4.878295396136036)" style="cursor: default; font-family: Arial, sans-serif; font-size: 12px; fill: rgb(22, 33, 62); fill-opacity: 1; text-shadow: rgb(255, 255, 255) 1px 1px 1px, rgb(255, 255, 255) -1px -1px 1px, rgb(255, 255, 255) 1px -1px 1px, rgb(255, 255, 255) -1px 1px 1px; white-space: pre;">Public Administration</text></g><g class="sankey-node" transform="translate(0.000,283.028)" style="opacity: 1;"><rect class="node-rect" width="20" height="1.124204827856147" style="stroke-width: 0.5; stroke: rgb(26, 26, 46); stroke-opacity: 1; fill: rgb(15, 52, 96); fill-opacity: 1;"/><text class="node-label" data-notex="1" x="0" y="0" text-anchor="start" transform="translate(23.25,4.762102413928073)" style="cursor: default; font-family: Arial, sans-serif; font-size: 12px; fill: rgb(22, 33, 62); fill-opacity: 1; text-shadow: rgb(255, 255, 255) 1px 1px 1px, rgb(255, 255, 255) -1px -1px 1px, rgb(255, 255, 255) 1px -1px 1px, rgb(255, 255, 255) -1px 1px 1px; white-space: pre;">Other Services (except Public Administration)</text></g><g class="sankey-node" transform="translate(0.000,47.034)" style="opacity: 1;"><rect class="node-rect" width="20" height="0.8797468652887801" style="stroke-width: 0.5; stroke: rgb(26, 26, 46); stroke-opacity: 1; fill: rgb(15, 52, 96); fill-opacity: 1;"/><text class="node-label" data-notex="1" x="0" y="0" text-anchor="start" transform="translate(23.25,4.639873432644389)" style="cursor: default; font-family: Arial, sans-serif; font-size: 12px; fill: rgb(22, 33, 62); fill-opacity: 1; text-shadow: rgb(255, 255, 255) 1px 1px 1px, rgb(255, 255, 255) -1px -1px 1px, rgb(255, 255, 255) 1px -1px 1px, rgb(255, 255, 255) -1px 1px 1px; white-space: pre;">Transportation and Warehousing</text></g><g class="sankey-node" transform="translate(0.000,318.766)" style="opacity: 1;"><rect class="node-rect" width="20" height="1.2343618109883892" style="stroke-width: 0.5; stroke: rgb(26, 26, 46); stroke-opacity: 1; fill: rgb(15, 52, 96); fill-opacity: 1;"/><text class="node-label" data-notex="1" x="0" y="0" text-anchor="start" transform="translate(23.25,4.817180905494194)" style="cursor: default; font-family: Arial, sans-serif; font-size: 12px; fill: rgb(22, 33, 62); fill-opacity: 1; text-shadow: rgb(255, 255, 255) 1px 1px 1px, rgb(255, 255, 255) -1px -1px 1px, rgb(255, 255, 255) 1px -1px 1px, rgb(255, 255, 255) -1px 1px 1px; white-space: pre;">Real Estate and Rental and Leasing</text></g><g class="sankey-node" transform="translate(0.000,59.766)" style="opacity: 1;"><rect class="node-rect" width="20" height="0.8269318733760542" style="stroke-width: 0.5; stroke: rgb(26, 26, 46); stroke-opacity: 1; fill: rgb(15, 52, 96); fill-opacity: 1;"/><text class="node-label" data-notex="1" x="0" y="0" text-anchor="start" transform="translate(23.25,4.613465936688026)" style="cursor: default; font-family: Arial, sans-serif; font-size: 12px; fill: rgb(22, 33, 62); fill-opacity: 1; text-shadow: rgb(255, 255, 255) 1px 1px 1px, rgb(255, 255, 255) -1px -1px 1px, rgb(255, 255, 255) 1px -1px 1px, rgb(255, 255, 255) -1px 1px 1px; white-space: pre;">Construction</text></g><g class="sankey-node" transform="translate(0.000,270.230)" style="opacity: 1;"><rect class="node-rect" width="20" height="0.9461428551218773" style="stroke-width: 0.5; stroke: rgb(26, 26, 46); stroke-opacity: 1; fill: rgb(15, 52, 96); fill-opacity: 1;"/><text class="node-label" data-notex="1" x="0" y="0" text-anchor="start" transform="translate(23.25,4.673071427560938)" style="cursor: default; font-family: Arial, sans-serif; font-size: 12px; fill: rgb(22, 33, 62); fill-opacity: 1; text-shadow: rgb(255, 255, 255) 1px 1px 1px, rgb(255, 255, 255) -1px -1px 1px, rgb(255, 255, 255) 1px -1px 1px, rgb(255, 255, 255) -1px 1px 1px; white-space: pre;">Utilities</text></g><g class="sankey-node" transform="translate(0.000,72.445)" style="opacity: 1;"><rect class="node-rect" width="20" height="0.6669778978690033" style="stroke-width: 0.5; stroke: rgb(26, 26, 46); stroke-opacity: 1; fill: rgb(15, 52, 96); fill-opacity: 1;"/><text class="node-label" data-notex="1" x="0" y="0" text-anchor="start" transform="translate(23.25,4.533488948934501)" style="cursor: default; font-family: Arial, sans-serif; font-size: 12px; fill: rgb(22, 33, 62); fill-opacity: 1; text-shadow: rgb(255, 255, 255) 1px 1px 1px, rgb(255, 255, 255) -1px -1px 1px, rgb(255, 255, 255) 1px -1px 1px, rgb(255, 255, 255) -1px 1px 1px; white-space: pre;">Accommodation and Food Services</text></g><g class="sankey-node" transform="translate(0.000,84.963)" style="opacity: 1;"><rect class="node-rect" width="20" height="0.5" style="stroke-width: 0.5; stroke: rgb(26, 26, 46); stroke-opacity: 1; fill: rgb(15, 52, 96); fill-opacity: 1;"/><text class="node-label" data-notex="1" x="0" y="0" text-anchor="start" transform="translate(23.25,4.449999999999999)" style="cursor: default; font-family: Arial, sans-serif; font-size: 12px; fill: rgb(22, 33, 62); fill-opacity: 1; text-shadow: rgb(255, 255, 255) 1px 1px 1px, rgb(255, 255, 255) -1px -1px 1px, rgb(255, 255, 255) 1px -1px 1px, rgb(255, 255, 255) -1px 1px 1px; white-space: pre;">Management of Companies and Enterprises</text></g><g class="sankey-node" transform="translate(0.000,97.165)" style="opacity: 1;"><rect class="node-rect" width="20" height="0.5" style="stroke-width: 0.5; stroke: rgb(26, 26, 46); stroke-opacity: 1; fill: rgb(15, 52, 96); fill-opacity: 1;"/><text class="node-label" data-notex="1" x="0" y="0" text-anchor="start" transform="translate(23.25,4.449999999999999)" style="cursor: default; font-family: Arial, sans-serif; font-size: 12px; fill: rgb(22, 33, 62); fill-opacity: 1; text-shadow: rgb(255, 255, 255) 1px 1px 1px, rgb(255, 255, 255) -1px -1px 1px, rgb(255, 255, 255) 1px -1px 1px, rgb(255, 255, 255) -1px 1px 1px; white-space: pre;">Mining, Quarrying, and Oil and Gas Extraction</text></g><g class="sankey-node" transform="translate(520.000,89.605)" style="opacity: 1;"><rect class="node-rect" width="20" height="85.11060496743858" style="stroke-width: 0.5; stroke: rgb(26, 26, 46); stroke-opacity: 1; fill: rgb(15, 52, 96); fill-opacity: 1;"/><text class="node-label" data-notex="1" x="0" y="0" text-anchor="end" transform="translate(-3.25,46.75530248371929)" style="cursor: default; font-family: Arial, sans-serif; font-size: 12px; fill: rgb(22, 33, 62); fill-opacity: 1; text-shadow: rgb(255, 255, 255) 1px 1px 1px, rgb(255, 255, 255) -1px -1px 1px, rgb(255, 255, 255) 1px -1px 1px, rgb(255, 255, 255) -1px 1px 1px; white-space: pre;">[None]</text></g><g class="sankey-node" transform="translate(520.000,200.929)" style="opacity: 1;"><rect class="node-rect" width="20" height="18.341892191397733" style="stroke-width: 0.5; stroke: rgb(26, 26, 46); stroke-opacity: 1; fill: rgb(15, 52, 96); fill-opacity: 1;"/><text class="node-label" data-notex="1" x="0" y="0" text-anchor="end" transform="translate(-3.25,13.370946095698866)" style="cursor: default; font-family: Arial, sans-serif; font-size: 12px; fill: rgb(22, 33, 62); fill-opacity: 1; text-shadow: rgb(255, 255, 255) 1px 1px 1px, rgb(255, 255, 255) -1px -1px 1px, rgb(255, 255, 255) 1px -1px 1px, rgb(255, 255, 255) -1px 1px 1px; white-space: pre;">Remote</text></g><g class="sankey-node" transform="translate(520.000,186.568)" style="opacity: 1;"><rect class="node-rect" width="20" height="2.5094666157379493" style="stroke-width: 0.5; stroke: rgb(26, 26, 46); stroke-opacity: 1; fill: rgb(15, 52, 96); fill-opacity: 1;"/><text class="node-label" data-notex="1" x="0" y="0" text-anchor="end" transform="translate(-3.25,5.454733307868974)" style="cursor: default; font-family: Arial, sans-serif; font-size: 12px; fill: rgb(22, 33, 62); fill-opacity: 1; text-shadow: rgb(255, 255, 255) 1px 1px 1px, rgb(255, 255, 255) -1px -1px 1px, rgb(255, 255, 255) 1px -1px 1px, rgb(255, 255, 255) -1px 1px 1px; white-space: pre;">Hybrid Remote</text></g><g class="sankey-node" transform="translate(520.000,50.666)" style="opacity: 1;"><rect class="node-rect" width="20" height="0.7047028920923708" style="stroke-width: 0.5; stroke: rgb(26, 26, 46); stroke-opacity: 1; fill: rgb(15, 52, 96); fill-opacity: 1;"/><text class="node-label" data-notex="1" x="0" y="0" text-anchor="end" transform="translate(-3.25,4.552351446046185)" style="cursor: default; font-family: Arial, sans-serif; font-size: 12px; fill: rgb(22, 33, 62); fill-opacity: 1; text-shadow: rgb(255, 255, 255) 1px 1px 1px, rgb(255, 255, 255) -1px -1px 1px, rgb(255, 255, 255) 1px -1px 1px, rgb(255, 255, 255) -1px 1px 1px; white-space: pre;">Not Remote</text></g></g></g><defs id="topdefs-090992"><g class="clips"/></defs><g class="layer-above"><g class="imagelayer"/><g class="shapelayer"/></g><g class="infolayer"><g class="g-gtitle"><text class="gtitle" x="350" y="50" text-anchor="middle" dy="0em" style="opacity: 1; font-family: Georgia, serif; font-size: 26px; fill: rgb(26, 26, 46); fill-opacity: 1; white-space: pre;">Career Pathway Trends: Industry → Work Arrangement</text></g><g class="first-render"/></g></svg>