<svg class="main-svg" xmlns="http://www.w3.org/2000/svg" xmlns:xlink="http://www.w3.org/1999/xlink" width="700" height="500" style="" viewBox="0 0 700 500"><rect x="0" y="0" width="700" height="500" style="fill: rgb(248, 249, 250); fill-opacity: 1;"/><defs id="defs-3fa6af"><g class="clips"/><g class="gradients"/><g class="patterns"/></defs><g class="bglayer"/><g class="layer-below"><g class="imagelayer"/><g class="shapelayer"/></g><g class="cartesianlayer"/><g class="polarlayer"/><g class="smithlayer"/><g class="ternarylayer"/><g class="geolayer"/><g class="funnelarealayer"/><g class="pielayer"><g class="trace" stroke-linejoin="round" style="opacity: 1;"><g class="slice"><path class="surface" d="M253.01161723659266,249.40387990512542a56,56 0 1 0 54.98838276340735,-45.403879905125414l0,-104a160,160 0 1 1 -157.10966503830673,129.7253711575012Z" style="pointer-events: none; fill: rgb(233, 69, 96); fill-opacity: 1; stroke-width: 0; stroke: rgb(68, 68, 68); stroke-opacity: 1;"/><g class="slicetext"><text data-notex="1" class="slicetext" transform="translate(376.76401514375755,339.3295154297275)" text-anchor="middle" x="0" y="0" style="font-family: Arial, sans-serif; font-size: 13px; fill: rgb(255, 255, 255); fill-opacity: 1; white-space: pre;"><tspan class="line" dy="0em" x="0" y="0">[None]</tspan><tspan class="line" dy="1.3em" x="0" y="0">78%</tspan></text></g></g><g class="slice"><path class="surface" d="M308,204a56,56 0 0 0 -49.470637038982446,29.75774264745394l-91.87404021525312,-48.73562079758553a160,160 0 0 1 141.34467725423556,-85.02212184986841Z" style="pointer-events: none; fill: rgb(15, 52, 96); fill-opacity: 1; stroke-width: 0; stroke: rgb(68, 68, 68); stroke-opacity: 1;"/><g class="slicetext"><text data-notex="1" class="slicetext" transform="translate(252.33083132084957,163.50282386925667)" text-anchor="middle" x="0" y="0" style="font-family: Arial, sans-serif; font-size: 13px; fill: rgb(255, 255, 255); fill-opacity: 1; white-space: pre;"><tspan class="line" dy="0em" x="0" y="0">Remote</tspan><tspan class="line" dy="1.3em" x="0" y="0">17.2%</tspan></text></g></g><g class="slice"><path class="surface" d="M258.52936296101757,233.75774264745394a56,56 0 0 0 -4.161284587139812,10.129623095867862l-99.60214016279849,-29.923463619545217a160,160 0 0 1 11.889384534685178,-28.94178027390818Z" style="pointer-events: none; fill: rgb(83, 52, 131); fill-opacity: 1; stroke-width: 0; stroke: rgb(68, 68, 68); stroke-opacity: 1;"/><g class="slicetext"><text data-notex="1" class="slicetext" transform="translate(188.8352668318942,208.51792478411588)scale(0.5921489409339765)rotate(22.333029876686282)" text-anchor="middle" x="0" y="0" style="font-family: Arial, sans-serif; font-size: 13px; fill: rgb(255, 255, 255); fill-opacity: 1; white-space: pre;"><tspan class="line" dy="0em" x="0" y="0">Hybrid Remote</tspan><tspan class="line" dy="1.3em" x="0" y="0">3.12%</tspan></text></g></g><g class="slice"><path class="surface" d="M254.36807837387775,243.88736574332182a56,56 0 0 0 -1.3156547246788648,5.306901834816102l-102.0454989372021,-20.06778878345817a160,160 0 0 1 3.759013499082471,-15.16257667090315Z" style="pointer-events: none; fill: rgb(232, 168, 56); fill-opacity: 1; stroke-width: 0; stroke: rgb(68, 68, 68); stroke-opacity: 1;"/><g class="slicetext"><text data-notex="1" class="slicetext" transform="translate(168.00926361220715,223.74198189575986)scale(0.3814382715893609)rotate(13.923694446743298)" text-anchor="middle" x="0" y="0" style="font-family: Arial, sans-serif; font-size: 13px; fill: rgb(68, 68, 68); fill-opacity: 1; white-space: pre;"><tspan class="line" dy="0em" x="0" y="0">Not Remote</tspan><tspan class="line" dy="1.3em" x="0" y="0">1.55%</tspan></text></g></g><g class="slice"><path class="surface" d="M253.0524236491989,249.1942675781379a56,56 0 0 0 -0.040806412606241335,0.2096123269875605l-102.1212822748994,-19.67850874762413a160,160 0 0 1 0.11658975030354668,-0.5988923628216014Z" style="pointer-events: none; fill: rgb(46, 196, 182); fill-opacity: 1; stroke-width: 0; stroke: rgb(68, 68, 68); stroke-opacity: 1;"/><g class="slicetext"><text data-notex="1" class="slicetext" transform="translate(151.50167188238487,229.46001309094626)scale(0.01828261632828737)rotate(11.016303898038586)" text-anchor="middle" x="0" y="0" style="font-family: Arial, sans-serif; font-size: 13px; fill: rgb(68, 68, 68); fill-opacity: 1; white-space: pre;"><tspan class="line" dy="0em" x="0" y="0">null</tspan><tspan class="line" dy="1.3em" x="0" y="0">0.0607%</tspan></text></g></g></g></g><g class="iciclelayer"/><g class="treemaplayer"/><g class="sunburstlayer"/><g class="glimages"/><defs id="topdefs-3fa6af"><g class="clips"/><clipPath id="legend3fa6af"><rect width="143" height="110" x="0" y="0"/></clipPath></defs><g class="layer-above"><g class="imagelayer"/><g class="shapelayer"/></g><g class="infolayer"><g class="legend" pointer-events="all" transform="translate(545.12,100)"><rect class="bg" shape-rendering="crispEdges" style="stroke: rgb(68, 68, 68); stroke-opacity: 1; fill: rgb(248, 249, 250); fill-opacity: 1; stroke-width: 0px;" width="143" height="110" x="0" y="0"/><g class="scrollbox" transform="" clip-path="url(#legend3fa6af)"><g class="groups"><g class="traces" transform="translate(0,14.950000000000001)" style="opacity: 1;"><text class="legendtext" text-anchor="start" x="40" y="5.07" style="font-family: Arial, sans-serif; font-size: 13px; fill: rgb(22, 33, 62); fill-opacity: 1; white-space: pre;">[None]</text><g class="layers" style="opacity: 1;"><g class="legendfill"/><g class="legendlines"/><g class="legendsymbols"><g class="legendpoints"><path class="legendpie" d="M6,6H-6V-6H6Z" transform="translate(20,0)" style="fill: rgb(233, 69, 96); fill-opacity: 1; stroke-width: 0; stroke: rgb(68, 68, 68); stroke-opacity: 1;"/></g></g></g><rect class="legendtoggle" x="0" y="-9.950000000000001" width="137.234375" height="19.900000000000002" style="fill: rgb(0, 0, 0); fill-opacity: 0;"/></g><g class="traces" transform="translate(0,34.85)" style="opacity: 1;"><text class="legendtext" text-anchor="start" x="40" y="5.07" style="font-family: Arial, sans-serif; font-size: 13px; fill: rgb(22, 33, 62); fill-opacity: 1; white-space: pre;">Remote</text><g class="layers" style="opacity: 1;"><g class="legendfill"/><g class="legendlines"/><g class="legendsymbols"><g class="legendpoints"><path class="legendpie" d="M6,6H-6V-6H6Z" transform="translate(20,0)" style="fill: rgb(15, 52, 96); fill-opacity: 1; stroke-width: 0; stroke: rgb(68, 68, 68); stroke-opacity: 1;"/></g></g></g><rect class="legendtoggle" x="0" y="-9.950000000000001" width="137.234375" height="19.900000000000002" style="fill: rgb(0, 0, 0); fill-opacity: 0;"/></g><g class="traces" transform="translate(0,54.75000000000001)" style="opacity: 1;"><text class="legendtext" text-anchor="start" x="40" y="5.07" style="font-family: Arial, sans-serif; font-size: 13px; fill: rgb(22, 33, 62); fill-opacity: 1; white-space: pre;">Hybrid Remote</text><g class="layers" style="opacity: 1;"><g class="legendfill"/><g class="legendlines"/><g class="legendsymbols"><g class="legendpoints"><path class="legendpie" d="M6,6H-6V-6H6Z" transform="translate(20,0)" style="fill: rgb(83, 52, 131); fill-opacity: 1; stroke-width: 0; stroke: rgb(68, 68, 68); stroke-opacity: 1;"/></g></g></g><rect class="legendtoggle" x="0" y="-9.950000000000001" width="137.234375" height="19.900000000000002" style="fill: rgb(0, 0, 0); fill-opacity: 0;"/></g><g class="traces" transform="translate(0,74.65)" style="opacity: 1;"><text class="legendtext" text-anchor="start" x="40" y="5.07" style="font-family: Arial, sans-serif; font-size: 13px; fill: rgb(22, 33, 62); fill-opacity: 1; white-space: pre;">Not Remote</text><g class="layers" style="opacity: 1;"><g class="legendfill"/><g class="legendlines"/><g class="legendsymbols"><g class="legendpoints"><path class="legendpie" d="M6,6H-6V-6H6Z" transform="translate(20,0)" style="fill: rgb(232, 168, 56); fill-opacity: 1; stroke-width: 0; stroke: rgb(68, 68, 68); stroke-opacity: 1;"/></g></g></g><rect class="legendtoggle" x="0" y="-9.950000000000001" width="137.234375" height="19.900000000000002" style="fill: rgb(0, 0, 0); fill-opacity: 0;"/></g><g class="traces" transform="translate(0,94.55000000000001)" style="opacity: 1;"><text class="legendtext" text-anchor="start" x="40" y="5.07" style="font-family: Arial, sans-serif; font-size: 13px; fill: rgb(22, 33, 62); fill-opacity: 1; white-space: pre;">null</text><g class="layers" style="opacity: 1;"><g class="legendfill"/><g class="legendlines"/><g class="legendsymbols"><g class="legendpoints"><path class="legendpie" d="M6,6H-6V-6H6Z" transform="translate(20,0)" style="fill: rgb(46, 196, 182); fill-opacity: 1; stroke-width: 0; stroke: rgb(68, 68, 68); stroke-opacity: 1;"/></g></g></g><rect class="legendtoggle" x="0" y="-9.950000000000001" width="137.234375" height="19.900000000000002" style="fill: rgb(0, 0, 0); fill-opacity: 0;"/></g></g></g><rect class="scrollbar" rx="20" ry="3" width="0" height="0" style="fill: rgb(128, 139, 164); fill-opacity: 1;" x="0" y="0"/></g><g class="g-gtitle"><text class="gtitle" x="350" y="50" text-anchor="middle" dy="0em" style="opacity: 1; font-family: Georgia, serif; font-size: 26px; fill: rgb(26, 26, 46); fill-opacity: 1; white-space: pre;">Remote vs On-Site Job Postings</text></g></g></svg>