<svg class="main-svg" xmlns="http://www.w3.org/2000/svg" xmlns:xlink="http://www.w3.org/1999/xlink" width="700" height="500" style="" viewBox="0 0 700 500"><rect x="0" y="0" width="700" height="500" style="fill: rgb(248, 249, 250); fill-opacity: 1;"/><defs id="defs-578d79"><g class="clips"><clipPath id="clip578d79xyplot" class="plotclip"><rect width="414" height="320"/></clipPath><clipPath class="axesclip" id="clip578d79x"><rect x="80" y="0" width="414" height="500"/></clipPath><clipPath class="axesclip" id="clip578d79y"><rect x="0" y="100" width="700" height="320"/></clipPath><clipPath class="axesclip" id="clip578d79xy"><rect x="80" y="100" width="414" height="320"/></clipPath></g><g class="gradients"><linearGradient x1="0" y1="1" x2="0" y2="0" gradientUnits="objectBoundingBox" id="g578d79-cbcoloraxis"><stop offset="0%" stop-color="rgb(68, 1, 84)" stop-opacity="1"/><stop offset="11.111111%" stop-color="rgb(72, 40, 120)" stop-opacity="1"/><stop offset="22.222222%" stop-color="rgb(62, 73, 137)" stop-opacity="1"/><stop offset="33.333333%" stop-color="rgb(49, 104, 142)" stop-opacity="1"/><stop offset="44.444444%" stop-color="rgb(38, 130, 142)" stop-opacity="1"/><stop offset="55.555556%" stop-color="rgb(31, 158, 137)" stop-opacity="1"/><stop offset="66.666667%" stop-color="rgb(53, 183, 121)" stop-opacity="1"/><stop offset="77.777778%" stop-color="rgb(110, 206, 88)" stop-opacity="1"/><stop offset="88.888889%" stop-color="rgb(181, 222, 43)" stop-opacity="1"/><stop offset="100%" stop-color="rgb(253, 231, 37)" stop-opacity="1"/></linearGradient></g><g class="patterns"/></defs><g class="bglayer"><rect class="bg" x="80" y="100" width="414" height="320" style="fill: rgb(240, 242, 245); fill-opacity: 1; stroke-width: 0;"/></g><g class="layer-below"><g class="imagelayer"/><g class="shapelayer"/></g><g class="cartesianlayer"><g class="subplot xy"><g class="layer-subplot"><g class="shapelayer"/><g class="imagelayer"/></g><g class="minor-gridlayer"><g class="x"/><g class="y"/></g><g class="gridlayer"><g class="x"><path class="xgrid crisp" transform="translate(140.23,0)" d="M0,100v320" style="stroke: rgb(221, 225, 231); stroke-opacity: 1; stroke-width: 1px;"/><path class="xgrid crisp" transform="translate(156.73000000000002,0)" d="M0,100v320" style="stroke: rgb(221, 225, 231); stroke-opacity: 1; stroke-width: 1px;"/><path class="xgrid crisp" transform="translate(173.24,0)" d="M0,100v320" style="stroke: rgb(221, 225, 231); stroke-opacity: 1; stroke-width: 1px;"/><path class="xgrid crisp" transform="translate(189.74,0)" d="M0,100v320" style="stroke: rgb(221, 225, 231); stroke-opacity: 1; stroke-width: 1px;"/><path class="xgrid crisp" transform="translate(206.24,0)" d="M0,100v320" style="stroke: rgb(221, 225, 231); stroke-opacity: 1; stroke-width: 1px;"/><path class="xgrid crisp" transform="translate(222.75,0)" d="M0,100v320" style="stroke: rgb(221, 225, 231); stroke-opacity: 1; stroke-width: 1px;"/><path class="xgrid crisp" transform="translate(239.25,0)" d="M0,100v320" style="stroke: rgb(221, 225, 231); stroke-opacity: 1; stroke-width: 1px;"/><path class="xgrid crisp" transform="translate(255.75,0)" d="M0,100v320" style="stroke: rgb(221, 225, 231); stroke-opacity: 1; stroke-width: 1px;"/><path class="xgrid crisp" transform="translate(272.26,0)" d="M0,100v320" style="stroke: rgb(221, 225, 231); stroke-opacity: 1; stroke-width: 1px;"/><path class="xgrid crisp" transform="translate(288.76,0)" d="M0,100v320" style="stroke: rgb(221, 225, 231); stroke-opacity: 1; stroke-width: 1px;"/><path class="xgrid crisp" transform="translate(305.26,0)" d="M0,100v320" style="stroke: rgb(221, 225, 231); stroke-opacity: 1; stroke-width: 1px;"/><path class="xgrid crisp" transform="translate(321.77,0)" d="M0,100v320" style="stroke: rgb(221, 225, 231); stroke-opacity: 1; stroke-width: 1px;"/><path class="xgrid crisp" transform="translate(338.27,0)" d="M0,100v320" style="stroke: rgb(221, 225, 231); stroke-opacity: 1; stroke-width: 1px;"/><path class="xgrid crisp" transform="translate(354.77,0)" d="M0,100v320" style="stroke: rgb(221, 225, 231); stroke-opacity: 1; stroke-width: 1px;"/><path class="xgrid crisp" transform="translate(371.28,0)" d="M0,100v320" style="stroke: rgb(221, 225, 231); stroke-opacity: 1; stroke-width: 1px;"/><path class="xgrid crisp" transform="translate(387.78,0)" d="M0,100v320" style="stroke: rgb(221, 225, 231); stroke-opacity: 1; stroke-width: 1px;"/><path class="xgrid crisp" transform="translate(404.29,0)" d="M0,100v320" style="stroke: rgb(221, 225, 231); stroke-opacity: 1; stroke-width: 1px;"/><path class="xgrid crisp" transform="translate(420.79,0)" d="M0,100v320" style="stroke: rgb(221, 225, 231); stroke-opacity: 1; stroke-width: 1px;"/><path class="xgrid crisp" transform="translate(437.29,0)" d="M0,100v320" style="stroke: rgb(221, 225, 231); stroke-opacity: 1; stroke-width: 1px;"/><path class="xgrid crisp" transform="translate(453.8,0)" d="M0,100v320" style="stroke: rgb(221, 225, 231); stroke-opacity: 1; stroke-width: 1px;"/><path class="xgrid crisp" transform="translate(470.3,0)" d="M0,100v320" style="stroke: rgb(221, 225, 231); stroke-opacity: 1; stroke-width: 1px;"/></g><g class="y"><path class="ygrid crisp" transform="translate(0,404.65)" d="M80,0h414" style="stroke: rgb(221, 225, 231); stroke-opacity: 1; stroke-width: 1px;"/><path class="ygrid crisp" transform="translate(0,344.93)" d="M80,0h414" style="stroke: rgb(221, 225, 231); stroke-opacity: 1; stroke-width: 1px;"/><path class="ygrid crisp" transform="translate(0,285.21000000000004)" d="M80,0h414" style="stroke: rgb(221, 225, 231); stroke-opacity: 1; stroke-width: 1px;"/><path class="ygrid crisp" transform="translate(0,225.49)" d="M80,0h414" style="stroke: rgb(221, 225, 231); stroke-opacity: 1; stroke-width: 1px;"/><path class="ygrid crisp" transform="translate(0,165.76999999999998)" d="M80,0h414" style="stroke: rgb(221, 225, 231); stroke-opacity: 1; stroke-width: 1px;"/><path class="ygrid crisp" transform="translate(0,106.06)" d="M80,0h414" style="stroke: rgb(221, 225, 231); stroke-opacity: 1; stroke-width: 1px;"/></g></g><g class="zerolinelayer"/><g class="layer-between"><g class="shapelayer"/><g class="imagelayer"/></g><path class="xlines-below"/><path class="ylines-below"/><g class="overlines-below"/><g class="xaxislayer-below"/><g class="yaxislayer-below"/><g class="overaxes-below"/><g class="overplot"><g class="xy" transform="translate(80,100)" clip-path="url(#clip578d79xyplot)"><g class="scatterlayer mlayer"><g class="trace scatter trace3ea5ee" style="stroke-miterlimit: 2; opacity: 1;"><g class="fills"/><g class="errorbars"/><g class="lines"/><g class="points"><path class="point" transform="translate(60.23,78.46)" d="M35.36,0A35.36,35.36 0 1,1 0,-35.36A35.36,35.36 0 0,1 35.36,0Z" style="opacity: 0.7; stroke-width: 1px; fill: rgb(145, 214, 66); fill-opacity: 1; stroke: rgb(255, 255, 255); stroke-opacity: 1;"/><path class="point" transform="translate(76.73,160.39)" d="M23.33,0A23.33,23.33 0 1,1 0,-23.33A23.33,23.33 0 0,1 23.33,0Z" style="opacity: 0.7; stroke-width: 1px; fill: rgb(34, 147, 139); fill-opacity: 1; stroke: rgb(255, 255, 255); stroke-opacity: 1;"/><path class="point" transform="translate(93.24,141.74)" d="M23.25,0A23.25,23.25 0 1,1 0,-23.25A23.25,23.25 0 0,1 23.25,0Z" style="opacity: 0.7; stroke-width: 1px; fill: rgb(37, 165, 133); fill-opacity: 1; stroke: rgb(255, 255, 255); stroke-opacity: 1;"/><path class="point" transform="translate(109.74,155.35)" d="M22.65,0A22.65,22.65 0 1,1 0,-22.65A22.65,22.65 0 0,1 22.65,0Z" style="opacity: 0.7; stroke-width: 1px; fill: rgb(33, 152, 138); fill-opacity: 1; stroke: rgb(255, 255, 255); stroke-opacity: 1;"/><path class="point" transform="translate(126.24,35.91)" d="M17.81,0A17.81,17.81 0 1,1 0,-17.81A17.81,17.81 0 0,1 17.81,0Z" style="opacity: 0.7; stroke-width: 1px; fill: rgb(253, 231, 37); fill-opacity: 1; stroke: rgb(255, 255, 255); stroke-opacity: 1;"/><path class="point" transform="translate(142.75,80.7)" d="M15.31,0A15.31,15.31 0 1,1 0,-15.31A15.31,15.31 0 0,1 15.31,0Z" style="opacity: 0.7; stroke-width: 1px; fill: rgb(140, 213, 69); fill-opacity: 1; stroke: rgb(255, 255, 255); stroke-opacity: 1;"/><path class="point" transform="translate(159.25,215.07)" d="M13.94,0A13.94,13.94 0 1,1 0,-13.94A13.94,13.94 0 0,1 13.94,0Z" style="opacity: 0.7; stroke-width: 1px; fill: rgb(53, 94, 140); fill-opacity: 1; stroke: rgb(255, 255, 255); stroke-opacity: 1;"/><path class="point" transform="translate(175.75,290.81)" d="M11.79,0A11.79,11.79 0 1,1 0,-11.79A11.79,11.79 0 0,1 11.79,0Z" style="opacity: 0.7; stroke-width: 1px; fill: rgb(68, 1, 84); fill-opacity: 1; stroke: rgb(255, 255, 255); stroke-opacity: 1;"/><path class="point" transform="translate(192.26,187)" d="M11.27,0A11.27,11.27 0 1,1 0,-11.27A11.27,11.27 0 0,1 11.27,0Z" style="opacity: 0.7; stroke-width: 1px; fill: rgb(42, 121, 142); fill-opacity: 1; stroke: rgb(255, 255, 255); stroke-opacity: 1;"/><path class="point" transform="translate(208.76,155.35)" d="M10.42,0A10.42,10.42 0 1,1 0,-10.42A10.42,10.42 0 0,1 10.42,0Z" style="opacity: 0.7; stroke-width: 1px; fill: rgb(33, 152, 138); fill-opacity: 1; stroke: rgb(255, 255, 255); stroke-opacity: 1;"/><path class="point" transform="translate(225.26,271.18)" d="M9.96,0A9.96,9.96 0 1,1 0,-9.96A9.96,9.96 0 0,1 9.96,0Z" style="opacity: 0.7; stroke-width: 1px; fill: rgb(71, 28, 109); fill-opacity: 1; stroke: rgb(255, 255, 255); stroke-opacity: 1;"/><path class="point" transform="translate(241.77,244.93)" d="M7.82,0A7.82,7.82 0 1,1 0,-7.82A7.82,7.82 0 0,1 7.82,0Z" style="opacity: 0.7; stroke-width: 1px; fill: rgb(66, 60, 131); fill-opacity: 1; stroke: rgb(255, 255, 255); stroke-opacity: 1;"/><path class="point" transform="translate(258.27,225.36)" d="M7.2,0A7.2,7.2 0 1,1 0,-7.2A7.2,7.2 0 0,1 7.2,0Z" style="opacity: 0.7; stroke-width: 1px; fill: rgb(58, 83, 139); fill-opacity: 1; stroke: rgb(255, 255, 255); stroke-opacity: 1;"/><path class="point" transform="translate(274.77,100.26)" d="M6.8,0A6.8,6.8 0 1,1 0,-6.8A6.8,6.8 0 0,1 6.8,0Z" style="opacity: 0.7; stroke-width: 1px; fill: rgb(94, 200, 97); fill-opacity: 1; stroke: rgb(255, 255, 255); stroke-opacity: 1;"/><path class="point" transform="translate(291.28,95.63)" d="M6.35,0A6.35,6.35 0 1,1 0,-6.35A6.35,6.35 0 0,1 6.35,0Z" style="opacity: 0.7; stroke-width: 1px; fill: rgb(104, 204, 92); fill-opacity: 1; stroke: rgb(255, 255, 255); stroke-opacity: 1;"/><path class="point" transform="translate(307.78,62.51)" d="M6.03,0A6.03,6.03 0 1,1 0,-6.03A6.03,6.03 0 0,1 6.03,0Z" style="opacity: 0.7; stroke-width: 1px; fill: rgb(185, 223, 43); fill-opacity: 1; stroke: rgb(255, 255, 255); stroke-opacity: 1;"/><path class="point" transform="translate(324.29,185.21)" d="M5.74,0A5.74,5.74 0 1,1 0,-5.74A5.74,5.74 0 0,1 5.74,0Z" style="opacity: 0.7; stroke-width: 1px; fill: rgb(41, 123, 142); fill-opacity: 1; stroke: rgb(255, 255, 255); stroke-opacity: 1;"/><path class="point" transform="translate(340.79,274.79)" d="M3.48,0A3.48,3.48 0 1,1 0,-3.48A3.48,3.48 0 0,1 3.48,0Z" style="opacity: 0.7; stroke-width: 1px; fill: rgb(70, 23, 104); fill-opacity: 1; stroke: rgb(255, 255, 255); stroke-opacity: 1;"/><path class="point" transform="translate(357.29,215.07)" d="M2.35,0A2.35,2.35 0 1,1 0,-2.35A2.35,2.35 0 0,1 2.35,0Z" style="opacity: 0.7; stroke-width: 1px; fill: rgb(53, 94, 140); fill-opacity: 1; stroke: rgb(255, 255, 255); stroke-opacity: 1;"/><path class="point" transform="translate(373.8,166.1)" d="M2.26,0A2.26,2.26 0 1,1 0,-2.26A2.26,2.26 0 0,1 2.26,0Z" style="opacity: 0.7; stroke-width: 1px; fill: rgb(35, 141, 140); fill-opacity: 1; stroke: rgb(255, 255, 255); stroke-opacity: 1;"/><path class="point" transform="translate(390.3,274.79)" d="M1.98,0A1.98,1.98 0 1,1 0,-1.98A1.98,1.98 0 0,1 1.98,0Z" style="opacity: 0.7; stroke-width: 1px; fill: rgb(70, 23, 104); fill-opacity: 1; stroke: rgb(255, 255, 255); stroke-opacity: 1;"/></g><g class="text"/></g></g></g></g><g class="zerolinelayer-above"/><path class="xlines-above crisp" d="M0,0" style="fill: none;"/><path class="ylines-above crisp" d="M0,0" style="fill: none;"/><g class="overlines-above"/><g class="xaxislayer-above"><g class="xtick"><text text-anchor="end" x="0" y="434" transform="translate(140.23,0) rotate(-45,0,427.5)" style="font-family: Arial, sans-serif; font-size: 13px; fill: rgb(22, 33, 62); fill-opacity: 1; white-space: pre;">Professional, Scientific, and Technical Services</text></g><g class="xtick"><text text-anchor="end" x="0" y="434" transform="translate(156.73000000000002,0) rotate(-45,0,427.5)" style="font-family: Arial, sans-serif; font-size: 13px; fill: rgb(22, 33, 62); fill-opacity: 1; white-space: pre;">Administrative and Support and Waste Management and Remediation Services</text></g><g class="xtick"><text text-anchor="end" x="0" y="434" transform="translate(173.24,0) rotate(-45,0,427.5)" style="font-family: Arial, sans-serif; font-size: 13px; fill: rgb(22, 33, 62); fill-opacity: 1; white-space: pre;">Finance and Insurance</text></g><g class="xtick"><text text-anchor="end" x="0" y="434" transform="translate(189.74,0) rotate(-45,0,427.5)" style="font-family: Arial, sans-serif; font-size: 13px; fill: rgb(22, 33, 62); fill-opacity: 1; white-space: pre;">Unclassified Industry</text></g><g class="xtick"><text text-anchor="end" x="0" y="434" transform="translate(206.24,0) rotate(-45,0,427.5)" style="font-family: Arial, sans-serif; font-size: 13px; fill: rgb(22, 33, 62); fill-opacity: 1; white-space: pre;">Information</text></g><g class="xtick"><text text-anchor="end" x="0" y="434" transform="translate(222.75,0) rotate(-45,0,427.5)" style="font-family: Arial, sans-serif; font-size: 13px; fill: rgb(22, 33, 62); fill-opacity: 1; white-space: pre;">Manufacturing</text></g><g class="xtick"><text text-anchor="end" x="0" y="434" transform="translate(239.25,0) rotate(-45,0,427.5)" style="font-family: Arial, sans-serif; font-size: 13px; fill: rgb(22, 33, 62); fill-opacity: 1; white-space: pre;">Health Care and Social Assistance</text></g><g class="xtick"><text text-anchor="end" x="0" y="434" transform="translate(255.75,0) rotate(-45,0,427.5)" style="font-family: Arial, sans-serif; font-size: 13px; fill: rgb(22, 33, 62); fill-opacity: 1; white-space: pre;">Educational Services</text></g><g class="xtick"><text text-anchor="end" x="0" y="434" transform="translate(272.26,0) rotate(-45,0,427.5)" style="font-family: Arial, sans-serif; font-size: 13px; fill: rgb(22, 33, 62); fill-opacity: 1; white-space: pre;">Wholesale Trade</text></g><g class="xtick"><text text-anchor="end" x="0" y="434" transform="translate(288.76,0) rotate(-45,0,427.5)" style="font-family: Arial, sans-serif; font-size: 13px; fill: rgb(22, 33, 62); fill-opacity: 1; white-space: pre;">Retail Trade</text></g><g class="xtick"><text text-anchor="end" x="0" y="434" transform="translate(305.26,0) rotate(-45,0,427.5)" style="font-family: Arial, sans-serif; font-size: 13px; fill: rgb(22, 33, 62); fill-opacity: 1; white-space: pre;">Public Administration</text></g><g class="xtick"><text text-anchor="end" x="0" y="434" transform="translate(321.77,0) rotate(-45,0,427.5)" style="font-family: Arial, sans-serif; font-size: 13px; fill: rgb(22, 33, 62); fill-opacity: 1; white-space: pre;">Real Estate and Rental and Leasing</text></g><g class="xtick"><text text-anchor="end" x="0" y="434" transform="translate(338.27,0) rotate(-45,0,427.5)" style="font-family: Arial, sans-serif; font-size: 13px; fill: rgb(22, 33, 62); fill-opacity: 1; white-space: pre;">Other Services (except Public Administration)</text></g><g class="xtick"><text text-anchor="end" x="0" y="434" transform="translate(354.77,0) rotate(-45,0,427.5)" style="font-family: Arial, sans-serif; font-size: 13px; fill: rgb(22, 33, 62); fill-opacity: 1; white-space: pre;">Utilities</text></g><g class="xtick"><text text-anchor="end" x="0" y="434" transform="translate(371.28,0) rotate(-45,0,427.5)" style="font-family: Arial, sans-serif; font-size: 13px; fill: rgb(22, 33, 62); fill-opacity: 1; white-space: pre;">Construction</text></g><g class="xtick"><text text-anchor="end" x="0" y="434" transform="translate(387.78,0) rotate(-45,0,427.5)" style="font-family: Arial, sans-serif; font-size: 13px; fill: rgb(22, 33, 62); fill-opacity: 1; white-space: pre;">Accommodation and Food Services</text></g><g class="xtick"><text text-anchor="end" x="0" y="434" transform="translate(404.29,0) rotate(-45,0,427.5)" style="font-family: Arial, sans-serif; font-size: 13px; fill: rgb(22, 33, 62); fill-opacity: 1; white-space: pre;">Transportation and Warehousing</text></g><g class="xtick"><text text-anchor="end" x="0" y="434" transform="translate(420.79,0) rotate(-45,0,427.5)" style="font-family: Arial, sans-serif; font-size: 13px; fill: rgb(22, 33, 62); fill-opacity: 1; white-space: pre;">Arts, Entertainment, and Recreation</text></g><g class="xtick"><text text-anchor="end" x="0" y="434" transform="translate(437.29,0) rotate(-45,0,427.5)" style="font-family: Arial, sans-serif; font-size: 13px; fill: rgb(22, 33, 62); fill-opacity: 1; white-space: pre;">Management of Companies and Enterprises</text></g><g class="xtick"><text text-anchor="end" x="0" y="434" transform="translate(453.8,0) rotate(-45,0,427.5)" style="font-family: Arial, sans-serif; font-size: 13px; fill: rgb(22, 33, 62); fill-opacity: 1; white-space: pre;">Mining, Quarrying, and Oil and Gas Extraction</text></g><g class="xtick"><text text-anchor="end" x="0" y="434" transform="translate(470.3,0) rotate(-45,0,427.5)" style="font-family: Arial, sans-serif; font-size: 13px; fill: rgb(22, 33, 62); fill-opacity: 1; white-space: pre;">Agriculture, Forestry, Fishing and Hunting</text></g></g><g class="yaxislayer-above"><g class="ytick"><text text-anchor="end" x="79" y="4.55" transform="translate(0,404.65)" style="font-family: Arial, sans-serif; font-size: 13px; fill: rgb(22, 33, 62); fill-opacity: 1; white-space: pre;">60k</text></g><g class="ytick"><text text-anchor="end" x="79" y="4.55" style="font-family: Arial, sans-serif; font-size: 13px; fill: rgb(22, 33, 62); fill-opacity: 1; white-space: pre;" transform="translate(0,344.93)">70k</text></g><g class="ytick"><text text-anchor="end" x="79" y="4.55" style="font-family: Arial, sans-serif; font-size: 13px; fill: rgb(22, 33, 62); fill-opacity: 1; white-space: pre;" transform="translate(0,285.21000000000004)">80k</text></g><g class="ytick"><text text-anchor="end" x="79" y="4.55" style="font-family: Arial, sans-serif; font-size: 13px; fill: rgb(22, 33, 62); fill-opacity: 1; white-space: pre;" transform="translate(0,225.49)">90k</text></g><g class="ytick"><text text-anchor="end" x="79" y="4.55" style="font-family: Arial, sans-serif; font-size: 13px; fill: rgb(22, 33, 62); fill-opacity: 1; white-space: pre;" transform="translate(0,165.76999999999998)">100k</text></g><g class="ytick"><text text-anchor="end" x="79" y="4.55" style="font-family: Arial, sans-serif; font-size: 13px; fill: rgb(22, 33, 62); fill-opacity: 1; white-space: pre;" transform="translate(0,106.06)">110k</text></g></g><g class="overaxes-above"/></g></g><g class="polarlayer"/><g class="smithlayer"/><g class="ternarylayer"/><g class="geolayer"/><g class="funnelarealayer"/><g class="pielayer"/><g class="iciclelayer"/><g class="treemaplayer"/><g class="sunburstlayer"/><g class="glimages"/><defs id="topdefs-578d79"><g class="clips"/></defs><g class="layer-above"><g class="imagelayer"/><g class="shapelayer"/></g><g class="infolayer"><g class="cbcoloraxis colorbar" transform="translate(80,100)"><rect class="cbbg" x="421.5" y="0" width="185.5771484375" height="321" style="fill: rgb(0, 0, 0); fill-opacity: 0; stroke: rgb(68, 68, 68); stroke-opacity: 1; stroke-width: 0;"/><g class="cbfills" transform="translate(0,34)"><rect class="cbfill gradient_filled" style="fill: url('#g578d79-cbcoloraxis');" x="432" y="0" width="30" height="276"/></g><g class="cblines" transform="translate(0,34)"/><g class="cbaxis crisp" transform="translate(0,-100)"><g class="ycbcoloraxistick"><text text-anchor="start" x="465.6" y="4.55" transform="translate(0,360.32)" style="font-family: Arial, sans-serif; font-size: 13px; fill: rgb(22, 33, 62); fill-opacity: 1; white-space: pre;">70k</text></g><g class="ycbcoloraxistick"><text text-anchor="start" x="465.6" y="4.55" style="font-family: Arial, sans-serif; font-size: 13px; fill: rgb(22, 33, 62); fill-opacity: 1; white-space: pre;" transform="translate(0,295.65999999999997)">80k</text></g><g class="ycbcoloraxistick"><text text-anchor="start" x="465.6" y="4.55" style="font-family: Arial, sans-serif; font-size: 13px; fill: rgb(22, 33, 62); fill-opacity: 1; white-space: pre;" transform="translate(0,230.99)">90k</text></g><g class="ycbcoloraxistick"><text text-anchor="start" x="465.6" y="4.55" style="font-family: Arial, sans-serif; font-size: 13px; fill: rgb(22, 33, 62); fill-opacity: 1; white-space: pre;" transform="translate(0,166.32999999999998)">100k</text></g></g><g class="cbtitleunshift" transform="translate(-80,-100)"><g class="cbtitle" transform="translate(-0.5,-0.5)"><text class="ycbcoloraxistitle" x="512.28" y="125" text-anchor="start" style="opacity: 1; font-family: Arial, sans-serif; font-size: 16px; fill: rgb(22, 33, 62); fill-opacity: 1; white-space: pre;">Median Salary (USD)</text></g></g><rect class="cboutline" x="432" y="34" width="30" height="276" style="stroke: rgb(68, 68, 68); stroke-opacity: 1; fill: none; stroke-width: 1;"/></g><g class="g-gtitle"><text class="gtitle" x="350" y="50" text-anchor="middle" dy="0em" style="opacity: 1; font-family: Georgia, serif; font-size: 26px; fill: rgb(26, 26, 46); fill-opacity: 1; white-space: pre;">Median Salary &amp; Job Volume by Industry (Bubble Chart)</text></g><g class="g-xtitle" transform="translate(0,18)"><text class="xtitle" x="287" y="478" text-anchor="middle" style="opacity: 1; font-family: Arial, sans-serif; font-size: 16px; fill: rgb(22, 33, 62); fill-opacity: 1; white-space: pre;">Industry</text></g><g class="g-ytitle"><text class="ytitle" transform="rotate(-90,38,260)" x="38" y="260" text-anchor="middle" style="opacity: 1; font-family: Arial, sans-serif; font-size: 16px; fill: rgb(22, 33, 62); fill-opacity: 1; white-space: pre;">Median Salary (USD)</text></g></g></svg>