<svg class="main-svg" xmlns="http://www.w3.org/2000/svg" xmlns:xlink="http://www.w3.org/1999/xlink" width="700" height="500" style="" viewBox="0 0 700 500"><rect x="0" y="0" width="700" height="500" style="fill: rgb(248, 249, 250); fill-opacity: 1;"/><defs id="defs-ea406a"><g class="clips"/><g class="gradients"/><g class="patterns"/></defs><g class="bglayer"/><g class="layer-below"><g class="imagelayer"/><g class="shapelayer"/></g><g class="cartesianlayer"/><g class="polarlayer"/><g class="smithlayer"/><g class="ternarylayer"/><g class="geolayer"/><g class="funnelarealayer"/><g class="pielayer"/><g class="iciclelayer"/><g class="treemaplayer"/><g class="sunburstlayer"/><g class="glimages"/><g class="sankey" transform="translate(80,100)matrix(1 0 0 1 0 0)" style="box-sizing: content-box; position: absolute; left: 0px; shape-rendering: geometricprecision; pointer-events: none;"><g class="sankey-links" style="fill: none;"><path class="sankey-link" d="M20,67.0755969416729C270,67.0755969416729 270,109.84126896060826 520,109.84126896060826L520,131.13232025741365C270,131.13232025741365 270,88.36664823847829 20,88.36664823847829Z" style="stroke: rgb(68, 68, 68); stroke-opacity: 1; fill: rgb(233, 69, 96); fill-opacity: 0.3; stroke-width: 0; opacity: 1;"/><path class="sankey-link" d="M20,106.97154662645056C270,106.97154662645056 270,131.13232025741365 520,131.13232025741365L520,143.48958641686636C270,143.48958641686636 270,119.3288127859033 20,119.3288127859033Z" style="stroke: rgb(68, 68, 68); stroke-opacity: 1; fill: rgb(233, 69, 96); fill-opacity: 0.3; stroke-width: 0; opacity: 1;"/><path class="sankey-link" d="M20,153.7766378209106C270,153.7766378209106 270,149.17038261489293 520,149.17038261489293L520,161.03663157595682C270,161.03663157595682 270,165.64288678197448 20,165.64288678197448Z" style="stroke: rgb(68, 68, 68); stroke-opacity: 1; fill: rgb(233, 69, 96); fill-opacity: 0.3; stroke-width: 0; opacity: 1;"/><path class="sankey-link" d="M20,181.47217406238752C270,181.47217406238752 270,161.0366315759568 520,161.0366315759568L520,172.6641916211372C270,172.6641916211372 270,193.09973410756794 20,193.09973410756794Z" style="stroke: rgb(68, 68, 68); stroke-opacity: 1; fill: rgb(233, 69, 96); fill-opacity: 0.3; stroke-width: 0; opacity: 1;"/><path class="sankey-link" d="M20,134.61934508475082C270,134.61934508475082 270,143.4895864168664 520,143.4895864168664L520,149.17038261489293C270,149.17038261489293 270,140.30014128277736 20,140.30014128277736Z" style="stroke: rgb(68, 68, 68); stroke-opacity: 1; fill: rgb(233, 69, 96); fill-opacity: 0.3; stroke-width: 0; opacity: 1;"/><path class="sankey-link" d="M20,240.59441563211817C270,240.59441563211817 270,178.2904303526761 520,178.2904303526761L520,183.6166030185329C270,183.6166030185329 270,245.92058829797497 20,245.92058829797497Z" style="stroke: rgb(68, 68, 68); stroke-opacity: 1; fill: rgb(233, 69, 96); fill-opacity: 0.3; stroke-width: 0; opacity: 1;"/><path class="sankey-link" d="M20,88.36664823847829C270,88.36664823847829 270,202.89665005428986 520,202.89665005428986L520,206.84524669133356C270,206.84524669133356 270,92.31524487552196 20,92.31524487552196Z" style="stroke: rgb(68, 68, 68); stroke-opacity: 1; fill: rgb(233, 69, 96); fill-opacity: 0.3; stroke-width: 0; opacity: 1;"/><path class="sankey-link" d="M20,223.27161770660564C270,223.27161770660564 270,174.57370294820495 520,174.57370294820495L520,178.2904303526761C270,178.2904303526761 270,226.9883451110768 20,226.9883451110768Z" style="stroke: rgb(68, 68, 68); stroke-opacity: 1; fill: rgb(233, 69, 96); fill-opacity: 0.3; stroke-width: 0; opacity: 1;"/><path class="sankey-link" d="M20,165.64288678197445C270,165.64288678197445 270,209.49810349929552 520,209.49810349929552L520,212.00092727441645C270,212.00092727441645 270,168.14571055709538 20,168.14571055709538Z" style="stroke: rgb(68, 68, 68); stroke-opacity: 1; fill: rgb(233, 69, 96); fill-opacity: 0.3; stroke-width: 0; opacity: 1;"/><path class="sankey-link" d="M20,260.30410271646537C270,260.30410271646537 270,183.61660301853294 520,183.61660301853294L520,185.79890167803893C270,185.79890167803893 270,262.4864013759714 20,262.4864013759714Z" style="stroke: rgb(68, 68, 68); stroke-opacity: 1; fill: rgb(233, 69, 96); fill-opacity: 0.3; stroke-width: 0; opacity: 1;"/><path class="sankey-link" d="M20,289.3507385691954C270,289.3507385691954 270,186.62408335866465 520,186.62408335866465L520,188.78592296823777C270,188.78592296823777 270,291.51257817876854 20,291.51257817876854Z" style="stroke: rgb(68, 68, 68); stroke-opacity: 1; fill: rgb(233, 69, 96); fill-opacity: 0.3; stroke-width: 0; opacity: 1;"/><path class="sankey-link" d="M20,92.31524487552196C270,92.31524487552196 270,230.20346434704237 520,230.20346434704237L520,232.31074649012783C270,232.31074649012783 270,94.42252701860744 20,94.42252701860744Z" style="stroke: rgb(68, 68, 68); stroke-opacity: 1; fill: rgb(233, 69, 96); fill-opacity: 0.3; stroke-width: 0; opacity: 1;"/><path class="sankey-link" d="M20,119.32881278590328C270,119.32881278590328 270,206.84524669133353 520,206.84524669133353L520,208.82295485151084C270,208.82295485151084 270,121.3065209460806 20,121.3065209460806Z" style="stroke: rgb(68, 68, 68); stroke-opacity: 1; fill: rgb(233, 69, 96); fill-opacity: 0.3; stroke-width: 0; opacity: 1;"/><path class="sankey-link" d="M20,208.53347975594556C270,208.53347975594556 270,172.6641916211372 520,172.6641916211372L520,174.57370294820498C270,174.57370294820498 270,210.44299108301334 20,210.44299108301334Z" style="stroke: rgb(68, 68, 68); stroke-opacity: 1; fill: rgb(233, 69, 96); fill-opacity: 0.3; stroke-width: 0; opacity: 1;"/><path class="sankey-link" d="M20,-5.684341886080802e-14C270,-5.684341886080802e-14 270,105.51077005815105 520,105.51077005815105L520,107.33162550217637C270,107.33162550217637 270,1.8208554440252616 20,1.8208554440252616Z" style="stroke: rgb(68, 68, 68); stroke-opacity: 1; fill: rgb(233, 69, 96); fill-opacity: 0.3; stroke-width: 0; opacity: 1;"/><path class="sankey-link" d="M20,193.09973410756794C270,193.09973410756794 270,212.00092727441645 520,212.00092727441645L520,213.80814335181984C270,213.80814335181984 270,194.90695018497132 20,194.90695018497132Z" style="stroke: rgb(68, 68, 68); stroke-opacity: 1; fill: rgb(233, 69, 96); fill-opacity: 0.3; stroke-width: 0; opacity: 1;"/><path class="sankey-link" d="M20,245.920588297975C270,245.920588297975 270,214.76289901535375 520,214.76289901535375L520,215.86768771172865C270,215.86768771172865 270,247.0253769943499 20,247.0253769943499Z" style="stroke: rgb(68, 68, 68); stroke-opacity: 1; fill: rgb(233, 69, 96); fill-opacity: 0.3; stroke-width: 0; opacity: 1;"/><path class="sankey-link" d="M20,304.85950073399357C270,304.85950073399357 270,188.78592296823777 520,188.78592296823777L520,189.88389198130173C270,189.88389198130173 270,305.9574697470575 20,305.9574697470575Z" style="stroke: rgb(68, 68, 68); stroke-opacity: 1; fill: rgb(233, 69, 96); fill-opacity: 0.3; stroke-width: 0; opacity: 1;"/><path class="sankey-link" d="M20,194.90695018497135C270,194.90695018497135 270,234.10432320090933 520,234.10432320090933L520,235.18183316404043C270,235.18183316404043 270,195.98446014810244 20,195.98446014810244Z" style="stroke: rgb(68, 68, 68); stroke-opacity: 1; fill: rgb(233, 69, 96); fill-opacity: 0.3; stroke-width: 0; opacity: 1;"/><path class="sankey-link" d="M20,14.369875051868405C270,14.369875051868405 270,107.33162550217637 520,107.33162550217637L520,108.36139768213076C270,108.36139768213076 270,15.399647231822797 20,15.399647231822797Z" style="stroke: rgb(68, 68, 68); stroke-opacity: 1; fill: rgb(233, 69, 96); fill-opacity: 0.3; stroke-width: 0; opacity: 1;"/><path class="sankey-link" d="M20,275.6628318484225C270,275.6628318484225 270,185.79890167803893 520,185.79890167803893L520,186.62408335866462C270,186.62408335866462 270,276.48801352904826 20,276.48801352904826Z" style="stroke: rgb(233, 69, 96); stroke-opacity: 0.3; fill: rgb(233, 69, 96); fill-opacity: 0.3; stroke-width: 1; opacity: 1;"/><path class="sankey-link" d="M20,27.94866683966596C270,27.94866683966596 270,108.36139768213076 520,108.36139768213076L520,109.14566126289071C270,109.14566126289071 270,28.73293042042593 20,28.73293042042593Z" style="stroke: rgb(233, 69, 96); stroke-opacity: 0.3; fill: rgb(233, 69, 96); fill-opacity: 0.3; stroke-width: 1; opacity: 1;"/><path class="sankey-link" d="M20,168.14571055709538C270,168.14571055709538 270,233.32687930346032 520,233.32687930346032L520,234.10432320090933C270,234.10432320090933 270,168.9231544545444 20,168.9231544545444Z" style="stroke: rgb(233, 69, 96); stroke-opacity: 0.3; fill: rgb(233, 69, 96); fill-opacity: 0.3; stroke-width: 1; opacity: 1;"/><path class="sankey-link" d="M20,121.3065209460806C270,121.3065209460806 270,232.31074649012785 520,232.31074649012785L520,233.07455102095494C270,233.07455102095494 270,122.07032547690768 20,122.07032547690768Z" style="stroke: rgb(233, 69, 96); stroke-opacity: 0.3; fill: rgb(233, 69, 96); fill-opacity: 0.3; stroke-width: 1; opacity: 1;"/><path class="sankey-link" d="M20,247.02537699434993C270,247.02537699434993 270,235.56373542945397 520,235.56373542945397L520,236.29344154372632C270,236.29344154372632 270,247.75508310862227 20,247.75508310862227Z" style="stroke: rgb(233, 69, 96); stroke-opacity: 0.3; fill: rgb(233, 69, 96); fill-opacity: 0.3; stroke-width: 1; opacity: 1;"/><path class="sankey-link" d="M20,319.2771135690387C270,319.2771135690387 270,216.93155830823784 520,216.93155830823784L520,217.6544447391992C270,217.6544447391992 270,320.00000000000006 20,320.00000000000006Z" style="stroke: rgb(233, 69, 96); stroke-opacity: 0.3; fill: rgb(233, 69, 96); fill-opacity: 0.3; stroke-width: 1; opacity: 1;"/><path class="sankey-link" d="M20,226.9883451110768C270,226.9883451110768 270,214.08775036756907 520,214.08775036756907L520,214.76289901535375C270,214.76289901535375 270,227.66349375886148 20,227.66349375886148Z" style="stroke: rgb(233, 69, 96); stroke-opacity: 0.3; fill: rgb(233, 69, 96); fill-opacity: 0.3; stroke-width: 1; opacity: 1;"/><path class="sankey-link" d="M20,140.30014128277736C270,140.30014128277736 270,208.82295485151084 520,208.82295485151084L520,209.49810349929552C270,209.49810349929552 270,140.97528993056204 20,140.97528993056204Z" style="stroke: rgb(233, 69, 96); stroke-opacity: 0.3; fill: rgb(233, 69, 96); fill-opacity: 0.3; stroke-width: 1; opacity: 1;"/><path class="sankey-link" d="M20,291.51257817876854C270,291.51257817876854 270,216.4541804764709 520,216.4541804764709L520,216.93155830823784C270,216.93155830823784 270,291.9899560105355 20,291.9899560105355Z" style="stroke: rgb(233, 69, 96); stroke-opacity: 0.3; fill: rgb(233, 69, 96); fill-opacity: 0.3; stroke-width: 1; opacity: 1;"/><path class="sankey-link" d="M20,318.8133751038937C270,318.8133751038937 270,189.88389198130173 520,189.88389198130173L520,190.34763044644674C270,190.34763044644674 270,319.27711356903876 20,319.27711356903876Z" style="stroke: rgb(233, 69, 96); stroke-opacity: 0.3; fill: rgb(233, 69, 96); fill-opacity: 0.3; stroke-width: 1; opacity: 1;"/><path class="sankey-link" d="M20,41.281950028269065C270,41.281950028269065 270,109.14566126289073 520,109.14566126289073L520,109.5412028949262C270,109.5412028949262 270,41.677491660304526 20,41.677491660304526Z" style="stroke: rgb(233, 69, 96); stroke-opacity: 0.3; fill: rgb(233, 69, 96); fill-opacity: 0.3; stroke-width: 1; opacity: 1;"/><path class="sankey-link" d="M20,227.66349375886148C270,227.66349375886148 270,235.18183316404043 520,235.18183316404043L520,235.56373542945397C270,235.56373542945397 270,228.04539602427502 20,228.04539602427502Z" style="stroke: rgb(233, 69, 96); stroke-opacity: 0.3; fill: rgb(233, 69, 96); fill-opacity: 0.3; stroke-width: 1; opacity: 1;"/><path class="sankey-link" d="M20,262.7591887084096C270,262.7591887084096 270,236.2934415437263 520,236.2934415437263L520,236.64806507589603C270,236.64806507589603 270,263.11381224057936 20,263.11381224057936Z" style="stroke: rgb(233, 69, 96); stroke-opacity: 0.3; fill: rgb(233, 69, 96); fill-opacity: 0.3; stroke-width: 1; opacity: 1;"/><path class="sankey-link" d="M20,291.9899560105355C270,291.9899560105355 270,236.648065075896 520,236.648065075896L520,236.96859019151094C270,236.96859019151094 270,292.3104811261504 20,292.3104811261504Z" style="stroke: rgb(233, 69, 96); stroke-opacity: 0.3; fill: rgb(233, 69, 96); fill-opacity: 0.3; stroke-width: 1; opacity: 1;"/><path class="sankey-link" d="M20,276.4880135290482C270,276.4880135290482 270,216.14047504416692 520,216.14047504416692L520,216.45418047647092C270,216.45418047647092 270,276.8017189613522 20,276.8017189613522Z" style="stroke: rgb(233, 69, 96); stroke-opacity: 0.3; fill: rgb(233, 69, 96); fill-opacity: 0.3; stroke-width: 1; opacity: 1;"/><path class="sankey-link" d="M20,305.95746974705753C270,305.95746974705753 270,236.96859019151094 520,236.96859019151094L520,237.27547594050395C270,237.27547594050395 270,306.2643554960506 20,306.2643554960506Z" style="stroke: rgb(233, 69, 96); stroke-opacity: 0.3; fill: rgb(233, 69, 96); fill-opacity: 0.3; stroke-width: 1; opacity: 1;"/><path class="sankey-link" d="M20,54.226511268147675C270,54.226511268147675 270,109.54120289492619 520,109.54120289492619L520,109.84126896060826C270,109.84126896060826 270,54.52657733382975 20,54.52657733382975Z" style="stroke: rgb(233, 69, 96); stroke-opacity: 0.3; fill: rgb(233, 69, 96); fill-opacity: 0.3; stroke-width: 1; opacity: 1;"/><path class="sankey-link" d="M20,210.4429910830133C270,210.4429910830133 270,213.80814335181987 520,213.80814335181987L520,214.08775036756907C270,214.08775036756907 270,210.72259809876252 20,210.72259809876252Z" style="stroke: rgb(233, 69, 96); stroke-opacity: 0.3; fill: rgb(233, 69, 96); fill-opacity: 0.3; stroke-width: 1; opacity: 1;"/><path class="sankey-link" d="M20,262.48640137597135C270,262.48640137597135 270,215.86768771172868 520,215.86768771172868L520,216.14047504416695C270,216.14047504416695 270,262.7591887084096 20,262.7591887084096Z" style="stroke: rgb(233, 69, 96); stroke-opacity: 0.3; fill: rgb(233, 69, 96); fill-opacity: 0.3; stroke-width: 1; opacity: 1;"/><path class="sankey-link" d="M20,140.97528993056204C270,140.97528993056204 270,233.07455102095494 520,233.07455102095494L520,233.32687930346034C270,233.32687930346034 270,141.22761821306744 20,141.22761821306744Z" style="stroke: rgb(233, 69, 96); stroke-opacity: 0.3; fill: rgb(233, 69, 96); fill-opacity: 0.3; stroke-width: 1; opacity: 1;"/></g><g class="sankey-node-set" style="cursor: move;"><g class="sankey-node" transform="translate(0.000,67.076)" style="opacity: 1;"><rect class="node-rect" width="20" height="27.34693007693454" style="stroke-width: 0.5; stroke: rgb(26, 26, 46); stroke-opacity: 1; fill: rgb(15, 52, 96); fill-opacity: 1;"/><text class="node-label" data-notex="1" x="0" y="0" text-anchor="start" transform="translate(23.25,17.87346503846727)" style="cursor: default; font-family: Arial, sans-serif; font-size: 12px; fill: rgb(22, 33, 62); fill-opacity: 1; text-shadow: rgb(255, 255, 255) 1px 1px 1px, rgb(255, 255, 255) -1px -1px 1px, rgb(255, 255, 255) 1px -1px 1px, rgb(255, 255, 255) -1px 1px 1px; white-space: pre;">Professional, Scientific, and Technical Services</text></g><g class="sankey-node" transform="translate(0.000,106.972)" style="opacity: 1;"><rect class="node-rect" width="20" height="15.098778850457109" style="stroke-width: 0.5; stroke: rgb(26, 26, 46); stroke-opacity: 1; fill: rgb(15, 52, 96); fill-opacity: 1;"/><text class="node-label" data-notex="1" x="0" y="0" text-anchor="start" transform="translate(23.25,11.749389425228554)" style="cursor: default; font-family: Arial, sans-serif; font-size: 12px; fill: rgb(22, 33, 62); fill-opacity: 1; text-shadow: rgb(255, 255, 255) 1px 1px 1px, rgb(255, 255, 255) -1px -1px 1px, rgb(255, 255, 255) 1px -1px 1px, rgb(255, 255, 255) -1px 1px 1px; white-space: pre;">Finance and Insurance</text></g><g class="sankey-node" transform="translate(0.000,153.777)" style="opacity: 1;"><rect class="node-rect" width="20" height="15.14651663363378" style="stroke-width: 0.5; stroke: rgb(26, 26, 46); stroke-opacity: 1; fill: rgb(15, 52, 96); fill-opacity: 1;"/><text class="node-label" data-notex="1" x="0" y="0" text-anchor="start" transform="translate(23.25,11.77325831681689)" style="cursor: default; font-family: Arial, sans-serif; font-size: 12px; fill: rgb(22, 33, 62); fill-opacity: 1; text-shadow: rgb(255, 255, 255) 1px 1px 1px, rgb(255, 255, 255) -1px -1px 1px, rgb(255, 255, 255) 1px -1px 1px, rgb(255, 255, 255) -1px 1px 1px; white-space: pre;">Administrative and Support and Waste Management and Remediation Services</text></g><g class="sankey-node" transform="translate(0.000,181.472)" style="opacity: 1;"><rect class="node-rect" width="20" height="14.51228608571489" style="stroke-width: 0.5; stroke: rgb(26, 26, 46); stroke-opacity: 1; fill: rgb(15, 52, 96); fill-opacity: 1;"/><text class="node-label" data-notex="1" x="0" y="0" text-anchor="start" transform="translate(23.25,11.456143042857445)" style="cursor: default; font-family: Arial, sans-serif; font-size: 12px; fill: rgb(22, 33, 62); fill-opacity: 1; text-shadow: rgb(255, 255, 255) 1px 1px 1px, rgb(255, 255, 255) -1px -1px 1px, rgb(255, 255, 255) 1px -1px 1px, rgb(255, 255, 255) -1px 1px 1px; white-space: pre;">Unclassified Industry</text></g><g class="sankey-node" transform="translate(0.000,134.619)" style="opacity: 1;"><rect class="node-rect" width="20" height="6.608273128316625" style="stroke-width: 0.5; stroke: rgb(26, 26, 46); stroke-opacity: 1; fill: rgb(15, 52, 96); fill-opacity: 1;"/><text class="node-label" data-notex="1" x="0" y="0" text-anchor="start" transform="translate(23.25,7.504136564158312)" style="cursor: default; font-family: Arial, sans-serif; font-size: 12px; fill: rgb(22, 33, 62); fill-opacity: 1; text-shadow: rgb(255, 255, 255) 1px 1px 1px, rgb(255, 255, 255) -1px -1px 1px, rgb(255, 255, 255) 1px -1px 1px, rgb(255, 255, 255) -1px 1px 1px; white-space: pre;">Information</text></g><g class="sankey-node" transform="translate(0.000,240.594)" style="opacity: 1;"><rect class="node-rect" width="20" height="7.160667476504045" style="stroke-width: 0.5; stroke: rgb(26, 26, 46); stroke-opacity: 1; fill: rgb(15, 52, 96); fill-opacity: 1;"/><text class="node-label" data-notex="1" x="0" y="0" text-anchor="start" transform="translate(23.25,7.780333738252022)" style="cursor: default; font-family: Arial, sans-serif; font-size: 12px; fill: rgb(22, 33, 62); fill-opacity: 1; text-shadow: rgb(255, 255, 255) 1px 1px 1px, rgb(255, 255, 255) -1px -1px 1px, rgb(255, 255, 255) 1px -1px 1px, rgb(255, 255, 255) -1px 1px 1px; white-space: pre;">Manufacturing</text></g><g class="sankey-node" transform="translate(0.000,223.272)" style="opacity: 1;"><rect class="node-rect" width="20" height="4.773778317669382" style="stroke-width: 0.5; stroke: rgb(26, 26, 46); stroke-opacity: 1; fill: rgb(15, 52, 96); fill-opacity: 1;"/><text class="node-label" data-notex="1" x="0" y="0" text-anchor="start" transform="translate(23.25,6.5868891588346905)" style="cursor: default; font-family: Arial, sans-serif; font-size: 12px; fill: rgb(22, 33, 62); fill-opacity: 1; text-shadow: rgb(255, 255, 255) 1px 1px 1px, rgb(255, 255, 255) -1px -1px 1px, rgb(255, 255, 255) 1px -1px 1px, rgb(255, 255, 255) -1px 1px 1px; white-space: pre;">Health Care and Social Assistance</text></g><g class="sankey-node" transform="translate(0.000,260.304)" style="opacity: 1;"><rect class="node-rect" width="20" height="2.809709524113998" style="stroke-width: 0.5; stroke: rgb(26, 26, 46); stroke-opacity: 1; fill: rgb(15, 52, 96); fill-opacity: 1;"/><text class="node-label" data-notex="1" x="0" y="0" text-anchor="start" transform="translate(23.25,5.604854762056998)" style="cursor: default; font-family: Arial, sans-serif; font-size: 12px; fill: rgb(22, 33, 62); fill-opacity: 1; text-shadow: rgb(255, 255, 255) 1px 1px 1px, rgb(255, 255, 255) -1px -1px 1px, rgb(255, 255, 255) 1px -1px 1px, rgb(255, 255, 255) -1px 1px 1px; white-space: pre;">Wholesale Trade</text></g><g class="sankey-node" transform="translate(0.000,289.351)" style="opacity: 1;"><rect class="node-rect" width="20" height="2.959742556955007" style="stroke-width: 0.5; stroke: rgb(26, 26, 46); stroke-opacity: 1; fill: rgb(15, 52, 96); fill-opacity: 1;"/><text class="node-label" data-notex="1" x="0" y="0" text-anchor="start" transform="translate(23.25,5.679871278477503)" style="cursor: default; font-family: Arial, sans-serif; font-size: 12px; fill: rgb(22, 33, 62); fill-opacity: 1; text-shadow: rgb(255, 255, 255) 1px 1px 1px, rgb(255, 255, 255) -1px -1px 1px, rgb(255, 255, 255) 1px -1px 1px, rgb(255, 255, 255) -1px 1px 1px; white-space: pre;">Educational Services</text></g><g class="sankey-node" transform="translate(0.000,208.533)" style="opacity: 1;"><rect class="node-rect" width="20" height="2.1891183428169256" style="stroke-width: 0.5; stroke: rgb(26, 26, 46); stroke-opacity: 1; fill: rgb(15, 52, 96); fill-opacity: 1;"/><text class="node-label" data-notex="1" x="0" y="0" text-anchor="start" transform="translate(23.25,5.294559171408462)" style="cursor: default; font-family: Arial, sans-serif; font-size: 12px; fill: rgb(22, 33, 62); fill-opacity: 1; text-shadow: rgb(255, 255, 255) 1px 1px 1px, rgb(255, 255, 255) -1px -1px 1px, rgb(255, 255, 255) 1px -1px 1px, rgb(255, 255, 255) -1px 1px 1px; white-space: pre;">Retail Trade</text></g><g class="sankey-node" transform="translate(0.000,-0.000)" style="opacity: 1;"><rect class="node-rect" width="20" height="1.8208554440253266" style="stroke-width: 0.5; stroke: rgb(26, 26, 46); stroke-opacity: 1; fill: rgb(15, 52, 96); fill-opacity: 1;"/><text class="node-label" data-notex="1" x="0" y="0" text-anchor="start" transform="translate(23.25,5.110427722012663)" style="cursor: default; font-family: Arial, sans-serif; font-size: 12px; fill: rgb(22, 33, 62); fill-opacity: 1; text-shadow: rgb(255, 255, 255) 1px 1px 1px, rgb(255, 255, 255) -1px -1px 1px, rgb(255, 255, 255) 1px -1px 1px, rgb(255, 255, 255) -1px 1px 1px; white-space: pre;">Real Estate and Rental and Leasing</text></g><g class="sankey-node" transform="translate(0.000,304.860)" style="opacity: 1;"><rect class="node-rect" width="20" height="1.4048547620569707" style="stroke-width: 0.5; stroke: rgb(26, 26, 46); stroke-opacity: 1; fill: rgb(15, 52, 96); fill-opacity: 1;"/><text class="node-label" data-notex="1" x="0" y="0" text-anchor="start" transform="translate(23.25,4.902427381028485)" style="cursor: default; font-family: Arial, sans-serif; font-size: 12px; fill: rgb(22, 33, 62); fill-opacity: 1; text-shadow: rgb(255, 255, 255) 1px 1px 1px, rgb(255, 255, 255) -1px -1px 1px, rgb(255, 255, 255) 1px -1px 1px, rgb(255, 255, 255) -1px 1px 1px; white-space: pre;">Public Administration</text></g><g class="sankey-node" transform="translate(0.000,14.370)" style="opacity: 1;"><rect class="node-rect" width="20" height="1.0297721799544206" style="stroke-width: 0.5; stroke: rgb(26, 26, 46); stroke-opacity: 1; fill: rgb(15, 52, 96); fill-opacity: 1;"/><text class="node-label" data-notex="1" x="0" y="0" text-anchor="start" transform="translate(23.25,4.71488608997721)" style="cursor: default; font-family: Arial, sans-serif; font-size: 12px; fill: rgb(22, 33, 62); fill-opacity: 1; text-shadow: rgb(255, 255, 255) 1px 1px 1px, rgb(255, 255, 255) -1px -1px 1px, rgb(255, 255, 255) 1px -1px 1px, rgb(255, 255, 255) -1px 1px 1px; white-space: pre;">Other Services (except Public Administration)</text></g><g class="sankey-node" transform="translate(0.000,275.663)" style="opacity: 1;"><rect class="node-rect" width="20" height="1.1388871129297513" style="stroke-width: 0.5; stroke: rgb(26, 26, 46); stroke-opacity: 1; fill: rgb(15, 52, 96); fill-opacity: 1;"/><text class="node-label" data-notex="1" x="0" y="0" text-anchor="start" transform="translate(23.25,4.769443556464875)" style="cursor: default; font-family: Arial, sans-serif; font-size: 12px; fill: rgb(22, 33, 62); fill-opacity: 1; text-shadow: rgb(255, 255, 255) 1px 1px 1px, rgb(255, 255, 255) -1px -1px 1px, rgb(255, 255, 255) 1px -1px 1px, rgb(255, 255, 255) -1px 1px 1px; white-space: pre;">Utilities</text></g><g class="sankey-node" transform="translate(0.000,27.949)" style="opacity: 1;"><rect class="node-rect" width="20" height="0.7842635807599692" style="stroke-width: 0.5; stroke: rgb(26, 26, 46); stroke-opacity: 1; fill: rgb(15, 52, 96); fill-opacity: 1;"/><text class="node-label" data-notex="1" x="0" y="0" text-anchor="start" transform="translate(23.25,4.592131790379984)" style="cursor: default; font-family: Arial, sans-serif; font-size: 12px; fill: rgb(22, 33, 62); fill-opacity: 1; text-shadow: rgb(255, 255, 255) 1px 1px 1px, rgb(255, 255, 255) -1px -1px 1px, rgb(255, 255, 255) 1px -1px 1px, rgb(255, 255, 255) -1px 1px 1px; white-space: pre;">Transportation and Warehousing</text></g><g class="sankey-node" transform="translate(0.000,318.813)" style="opacity: 1;"><rect class="node-rect" width="20" height="1.1866248961063093" style="stroke-width: 0.5; stroke: rgb(26, 26, 46); stroke-opacity: 1; fill: rgb(15, 52, 96); fill-opacity: 1;"/><text class="node-label" data-notex="1" x="0" y="0" text-anchor="start" transform="translate(23.25,4.793312448053154)" style="cursor: default; font-family: Arial, sans-serif; font-size: 12px; fill: rgb(22, 33, 62); fill-opacity: 1; text-shadow: rgb(255, 255, 255) 1px 1px 1px, rgb(255, 255, 255) -1px -1px 1px, rgb(255, 255, 255) 1px -1px 1px, rgb(255, 255, 255) -1px 1px 1px; white-space: pre;">Accommodation and Food Services</text></g><g class="sankey-node" transform="translate(0.000,41.282)" style="opacity: 1;"><rect class="node-rect" width="20" height="0.5" style="stroke-width: 0.5; stroke: rgb(26, 26, 46); stroke-opacity: 1; fill: rgb(15, 52, 96); fill-opacity: 1;"/><text class="node-label" data-notex="1" x="0" y="0" text-anchor="start" transform="translate(23.25,4.449999999999999)" style="cursor: default; font-family: Arial, sans-serif; font-size: 12px; fill: rgb(22, 33, 62); fill-opacity: 1; text-shadow: rgb(255, 255, 255) 1px 1px 1px, rgb(255, 255, 255) -1px -1px 1px, rgb(255, 255, 255) 1px -1px 1px, rgb(255, 255, 255) -1px 1px 1px; white-space: pre;">Construction</text></g><g class="sankey-node" transform="translate(0.000,54.227)" style="opacity: 1;"><rect class="node-rect" width="20" height="0.5" style="stroke-width: 0.5; stroke: rgb(26, 26, 46); stroke-opacity: 1; fill: rgb(15, 52, 96); fill-opacity: 1;"/><text class="node-label" data-notex="1" x="0" y="0" text-anchor="start" transform="translate(23.25,4.449999999999999)" style="cursor: default; font-family: Arial, sans-serif; font-size: 12px; fill: rgb(22, 33, 62); fill-opacity: 1; text-shadow: rgb(255, 255, 255) 1px 1px 1px, rgb(255, 255, 255) -1px -1px 1px, rgb(255, 255, 255) 1px -1px 1px, rgb(255, 255, 255) -1px 1px 1px; white-space: pre;">Arts, Entertainment, and Recreation</text></g><g class="sankey-node" transform="translate(520.000,105.511)" style="opacity: 1;"><rect class="node-rect" width="20" height="84.83686038829569" style="stroke-width: 0.5; stroke: rgb(26, 26, 46); stroke-opacity: 1; fill: rgb(15, 52, 96); fill-opacity: 1;"/><text class="node-label" data-notex="1" x="0" y="0" text-anchor="end" transform="translate(-3.25,46.61843019414785)" style="cursor: default; font-family: Arial, sans-serif; font-size: 12px; fill: rgb(22, 33, 62); fill-opacity: 1; text-shadow: rgb(255, 255, 255) 1px 1px 1px, rgb(255, 255, 255) -1px -1px 1px, rgb(255, 255, 255) 1px -1px 1px, rgb(255, 255, 255) -1px 1px 1px; white-space: pre;">Remote</text></g><g class="sankey-node" transform="translate(520.000,202.897)" style="opacity: 1;"><rect class="node-rect" width="20" height="14.757794684909356" style="stroke-width: 0.5; stroke: rgb(26, 26, 46); stroke-opacity: 1; fill: rgb(15, 52, 96); fill-opacity: 1;"/><text class="node-label" data-notex="1" x="0" y="0" text-anchor="end" transform="translate(-3.25,11.578897342454677)" style="cursor: default; font-family: Arial, sans-serif; font-size: 12px; fill: rgb(22, 33, 62); fill-opacity: 1; text-shadow: rgb(255, 255, 255) 1px 1px 1px, rgb(255, 255, 255) -1px -1px 1px, rgb(255, 255, 255) 1px -1px 1px, rgb(255, 255, 255) -1px 1px 1px; white-space: pre;">Hybrid Remote</text></g><g class="sankey-node" transform="translate(520.000,230.203)" style="opacity: 1;"><rect class="node-rect" width="20" height="7.072011593461582" style="stroke-width: 0.5; stroke: rgb(26, 26, 46); stroke-opacity: 1; fill: rgb(15, 52, 96); fill-opacity: 1;"/><text class="node-label" data-notex="1" x="0" y="0" text-anchor="end" transform="translate(-3.25,7.73600579673079)" style="cursor: default; font-family: Arial, sans-serif; font-size: 12px; fill: rgb(22, 33, 62); fill-opacity: 1; text-shadow: rgb(255, 255, 255) 1px 1px 1px, rgb(255, 255, 255) -1px -1px 1px, rgb(255, 255, 255) 1px -1px 1px, rgb(255, 255, 255) -1px 1px 1px; white-space: pre;">Not Remote</text></g></g></g><defs id="topdefs-ea406a"><g class="clips"/></defs><g class="layer-above"><g class="imagelayer"/><g class="shapelayer"/></g><g class="infolayer"><g class="g-gtitle"><text class="gtitle" x="350" y="50" text-anchor="middle" dy="0em" style="opacity: 1; font-family: Georgia, serif; font-size: 26px; fill: rgb(26, 26, 46); fill-opacity: 1; white-space: pre;">Career Pathway Trends: Industry → Work Arrangement</text></g><g class="first-render"/></g></svg>